  0
SECTION
  2
HEADER
  9
$ACADVER
  1
AC1014
  9
$HANDSEED
  5
FFFF
  9
$MEASUREMENT
 70
     1
  0
ENDSEC
  0
SECTION
  2
TABLES
  0
TABLE
  2
VPORT
  5
8
330
0
100
AcDbSymbolTable
 70
     4
  0
VPORT
  5
2E
330
8
100
AcDbSymbolTableRecord
100
AcDbViewportTableRecord
  2
*ACTIVE
 70
     0
 10
0.0
 20
0.0
 11
1.0
 21
1.0
 12
210.0
 22
148.5
 13
0.0
 23
0.0
 14
10.0
 24
10.0
 15
10.0
 25
10.0
 16
0.0
 26
0.0
 36
1.0
 17
0.0
 27
0.0
 37
0.0
 40
341.0
 41
1.24
 42
50.0
 43
0.0
 44
0.0
 50
0.0
 51
0.0
 71
     0
 72
   100
 73
     1
 74
     3
 75
     0
 76
     0
 77
     0
 78
     0
  0
ENDTAB
  0
TABLE
  2
LTYPE
  5
5
330
0
100
AcDbSymbolTable
 70
     1
  0
LTYPE
  5
14
330
5
100
AcDbSymbolTableRecord
100
AcDbLinetypeTableRecord
  2
BYBLOCK
 70
     0
  3

 72
    65
 73
     0
 40
0.0
  0
LTYPE
  5
15
330
5
100
AcDbSymbolTableRecord
100
AcDbLinetypeTableRecord
  2
BYLAYER
 70
     0
  3

 72
    65
 73
     0
 40
0.0
  0
LTYPE
  5
16
330
5
100
AcDbSymbolTableRecord
100
AcDbLinetypeTableRecord
  2
CONTINUOUS
 70
     0
  3
Solid line
 72
    65
 73
     0
 40
0.0
  0
ENDTAB
  0
TABLE
  2
LAYER
  5
2
100
AcDbSymbolTable
 70
2
  0
LAYER
  5
50
100
AcDbSymbolTableRecord
100
AcDbLayerTableRecord
  2
0
 70
0
  6
CONTINUOUS
  0
LAYER
  5
51
100
AcDbSymbolTableRecord
100
AcDbLayerTableRecord
  2
Layer_1
 70
0
  6
CONTINUOUS
  0
ENDTAB
  0
TABLE
  2
STYLE
  5
3
330
0
100
AcDbSymbolTable
 70
     1
  0
STYLE
  5
11
330
3
100
AcDbSymbolTableRecord
100
AcDbTextStyleTableRecord
  2
STANDARD
 70
     0
 40
0.0
 41
1.0
 50
0.0
 71
     0
 42
2.5
  3
txt
  4

  0
ENDTAB
  0
TABLE
  2
VIEW
  5
6
330
0
100
AcDbSymbolTable
 70
     0
  0
ENDTAB
  0
TABLE
  2
UCS
  5
7
330
0
100
AcDbSymbolTable
 70
     0
  0
ENDTAB
  0
TABLE
  2
APPID
  5
9
330
0
100
AcDbSymbolTable
 70
     2
  0
APPID
  5
12
330
9
100
AcDbSymbolTableRecord
100
AcDbRegAppTableRecord
  2
ACAD
 70
     0
  0
ENDTAB
  0
TABLE
  2
DIMSTYLE
  5
A
330
0
100
AcDbSymbolTable
 70
     1
  0
DIMSTYLE
105
27
330
A
100
AcDbSymbolTableRecord
100
AcDbDimStyleTableRecord
  2
ISO-25
 70
     0
  3

  4

  5

  6

  7

 40
1.0
 41
2.5
 42
0.625
 43
3.75
 44
1.25
 45
0.0
 46
0.0
 47
0.0
 48
0.0
140
2.5
141
2.5
142
0.0
143
0.03937007874016
144
1.0
145
0.0
146
1.0
147
0.625
 71
     0
 72
     0
 73
     0
 74
     0
 75
     0
 76
     0
 77
     1
 78
     8
170
     0
171
     3
172
     1
173
     0
174
     0
175
     0
176
     0
177
     0
178
     0
270
     2
271
     2
272
     2
273
     2
274
     3
340
11
275
     0
280
     0
281
     0
282
     0
283
     0
284
     8
285
     0
286
     0
287
     3
288
     0
  0
ENDTAB
  0
TABLE
  2
BLOCK_RECORD
  5
1
330
0
100
AcDbSymbolTable
 70
     1
  0
BLOCK_RECORD
  5
1F
330
1
100
AcDbSymbolTableRecord
100
AcDbBlockTableRecord
  2
*MODEL_SPACE
  0
BLOCK_RECORD
  5
1B
330
1
100
AcDbSymbolTableRecord
100
AcDbBlockTableRecord
  2
*PAPER_SPACE
  0
ENDTAB
  0
ENDSEC
  0
SECTION
  2
BLOCKS
  0
BLOCK
  5
20
330
1F
100
AcDbEntity
  8
0
100
AcDbBlockBegin
  2
*MODEL_SPACE
 70
     0
 10
0.0
 20
0.0
 30
0.0
  3
*MODEL_SPACE
  1

  0
ENDBLK
  5
21
330
1F
100
AcDbEntity
  8
0
100
AcDbBlockEnd
  0
BLOCK
  5
1C
330
1B
100
AcDbEntity
 67
     1
  8
0
100
AcDbBlockBegin
  2
*PAPER_SPACE
  1

  0
ENDBLK
  5
1D
330
1B
100
AcDbEntity
 67
     1
  8
0
100
AcDbBlockEnd
  0
ENDSEC
  0
SECTION
  2
ENTITIES
  0
SPLINE
  5
100
100
AcDbEntity
  8
Layer_1
 62
7
100
AcDbSpline
 70
8
 71
3
 72
8
 73
4
 74
0
 40
0
 40
0
 40
0
 40
0
 40
1
 40
1
 40
1
 40
1
 10
288.888767
 20
409.109877
 30
0.0
 10
286.372683
 20
409.074894
 30
0.0
 10
283.828063
 20
408.930023
 30
0.0
 10
282.352917
 20
408.689852
 30
0.0
  0
SPLINE
  5
101
100
AcDbEntity
  8
Layer_1
 62
7
100
AcDbSpline
 70
8
 71
3
 72
8
 73
4
 74
0
 40
0
 40
0
 40
0
 40
0
 40
1
 40
1
 40
1
 40
1
 10
282.352917
 20
408.689852
 30
0.0
 10
274.156556
 20
407.355409
 30
0.0
 10
268.327811
 20
404.483530
 30
0.0
 10
263.887119
 20
399.592780
 30
0.0
  0
SPLINE
  5
102
100
AcDbEntity
  8
Layer_1
 62
7
100
AcDbSpline
 70
8
 71
3
 72
8
 73
4
 74
0
 40
0
 40
0
 40
0
 40
0
 40
1
 40
1
 40
1
 40
1
 10
263.887119
 20
399.592780
 30
0.0
 10
260.224830
 20
395.559322
 30
0.0
 10
257.958868
 20
390.806943
 30
0.0
 10
256.606989
 20
384.322073
 30
0.0
  0
SPLINE
  5
103
100
AcDbEntity
  8
Layer_1
 62
7
100
AcDbSpline
 70
8
 71
3
 72
8
 73
4
 74
0
 40
0
 40
0
 40
0
 40
0
 40
1
 40
1
 40
1
 40
1
 10
256.606989
 20
384.322073
 30
0.0
 10
255.461874
 20
378.829039
 30
0.0
 10
255.232926
 20
374.889541
 30
0.0
 10
255.546978
 20
366.119917
 30
0.0
  0
SPLINE
  5
104
100
AcDbEntity
  8
Layer_1
 62
7
100
AcDbSpline
 70
8
 71
3
 72
8
 73
4
 74
0
 40
0
 40
0
 40
0
 40
0
 40
1
 40
1
 40
1
 40
1
 10
255.546978
 20
366.119917
 30
0.0
 10
255.675365
 20
362.534913
 30
0.0
 10
255.952142
 20
357.619545
 30
0.0
 10
256.162159
 20
355.197625
 30
0.0
  0
SPLINE
  5
105
100
AcDbEntity
  8
Layer_1
 62
7
100
AcDbSpline
 70
8
 71
3
 72
8
 73
4
 74
0
 40
0
 40
0
 40
0
 40
0
 40
1
 40
1
 40
1
 40
1
 10
256.162159
 20
355.197625
 30
0.0
 10
257.366977
 20
341.303605
 30
0.0
 10
255.524542
 20
331.253556
 30
0.0
 10
249.855983
 20
320.789744
 30
0.0
  0
SPLINE
  5
106
100
AcDbEntity
  8
Layer_1
 62
7
100
AcDbSpline
 70
8
 71
3
 72
8
 73
4
 74
0
 40
0
 40
0
 40
0
 40
0
 40
1
 40
1
 40
1
 40
1
 10
249.855983
 20
320.789744
 30
0.0
 10
248.787337
 20
318.817092
 30
0.0
 10
247.743823
 20
317.261623
 30
0.0
 10
243.271547
 20
310.972643
 30
0.0
  0
SPLINE
  5
107
100
AcDbEntity
  8
Layer_1
 62
7
100
AcDbSpline
 70
8
 71
3
 72
8
 73
4
 74
0
 40
0
 40
0
 40
0
 40
0
 40
1
 40
1
 40
1
 40
1
 10
243.271547
 20
310.972643
 30
0.0
 10
230.865217
 20
293.526693
 30
0.0
 10
222.951385
 20
275.992369
 30
0.0
 10
221.111972
 20
261.878448
 30
0.0
  0
SPLINE
  5
108
100
AcDbEntity
  8
Layer_1
 62
7
100
AcDbSpline
 70
8
 71
3
 72
8
 73
4
 74
0
 40
0
 40
0
 40
0
 40
0
 40
1
 40
1
 40
1
 40
1
 10
221.111972
 20
261.878448
 30
0.0
 10
220.488867
 20
257.097341
 30
0.0
 10
220.420400
 20
254.011108
 30
0.0
 10
220.848922
 20
249.806381
 30
0.0
  0
SPLINE
  5
109
100
AcDbEntity
  8
Layer_1
 62
7
100
AcDbSpline
 70
8
 71
3
 72
8
 73
4
 74
0
 40
0
 40
0
 40
0
 40
0
 40
1
 40
1
 40
1
 40
1
 10
220.013683
 20
246.243543
 30
0.0
 10
219.424710
 20
245.555360
 30
0.0
 10
218.037419
 20
243.657781
 30
0.0
 10
216.930959
 20
242.028186
 30
0.0
  0
SPLINE
  5
10a
100
AcDbEntity
  8
Layer_1
 62
7
100
AcDbSpline
 70
8
 71
3
 72
8
 73
4
 74
0
 40
0
 40
0
 40
0
 40
0
 40
1
 40
1
 40
1
 40
1
 10
216.930959
 20
242.028186
 30
0.0
 10
213.674233
 20
237.231648
 30
0.0
 10
213.092775
 20
236.752235
 30
0.0
 10
208.013361
 20
234.672130
 30
0.0
  0
SPLINE
  5
10b
100
AcDbEntity
  8
Layer_1
 62
7
100
AcDbSpline
 70
8
 71
3
 72
8
 73
4
 74
0
 40
0
 40
0
 40
0
 40
0
 40
1
 40
1
 40
1
 40
1
 10
208.013361
 20
234.672130
 30
0.0
 10
203.984824
 20
233.022376
 30
0.0
 10
202.675594
 20
232.225050
 30
0.0
 10
201.018645
 20
230.414571
 30
0.0
  0
SPLINE
  5
10c
100
AcDbEntity
  8
Layer_1
 62
7
100
AcDbSpline
 70
8
 71
3
 72
8
 73
4
 74
0
 40
0
 40
0
 40
0
 40
0
 40
1
 40
1
 40
1
 40
1
 10
201.018645
 20
230.414571
 30
0.0
 10
199.911151
 20
229.204467
 30
0.0
 10
199.511457
 20
228.603517
 30
0.0
 10
198.977519
 20
227.349133
 30
0.0
  0
SPLINE
  5
10d
100
AcDbEntity
  8
Layer_1
 62
7
100
AcDbSpline
 70
8
 71
3
 72
8
 73
4
 74
0
 40
0
 40
0
 40
0
 40
0
 40
1
 40
1
 40
1
 40
1
 10
198.977519
 20
227.349133
 30
0.0
 10
198.612182
 20
226.490829
 30
0.0
 10
198.218508
 20
225.332865
 30
0.0
 10
198.103457
 20
224.775531
 30
0.0
  0
SPLINE
  5
10e
100
AcDbEntity
  8
Layer_1
 62
7
100
AcDbSpline
 70
8
 71
3
 72
8
 73
4
 74
0
 40
0
 40
0
 40
0
 40
0
 40
1
 40
1
 40
1
 40
1
 10
198.103457
 20
224.775531
 30
0.0
 10
197.775242
 20
223.185584
 30
0.0
 10
197.949314
 20
219.947212
 30
0.0
 10
198.578448
 20
215.963215
 30
0.0
  0
SPLINE
  5
10f
100
AcDbEntity
  8
Layer_1
 62
7
100
AcDbSpline
 70
8
 71
3
 72
8
 73
4
 74
0
 40
0
 40
0
 40
0
 40
0
 40
1
 40
1
 40
1
 40
1
 10
198.578448
 20
215.963215
 30
0.0
 10
198.966781
 20
213.504087
 30
0.0
 10
199.162226
 20
211.615317
 30
0.0
 10
199.204368
 20
209.909652
 30
0.0
  0
SPLINE
  5
110
100
AcDbEntity
  8
Layer_1
 62
7
100
AcDbSpline
 70
8
 71
3
 72
8
 73
4
 74
0
 40
0
 40
0
 40
0
 40
0
 40
1
 40
1
 40
1
 40
1
 10
199.204368
 20
209.909652
 30
0.0
 10
199.263449
 20
207.517835
 30
0.0
 10
199.244206
 20
207.357654
 30
0.0
 10
198.650001
 20
205.311073
 30
0.0
  0
SPLINE
  5
111
100
AcDbEntity
  8
Layer_1
 62
7
100
AcDbSpline
 70
8
 71
3
 72
8
 73
4
 74
0
 40
0
 40
0
 40
0
 40
0
 40
1
 40
1
 40
1
 40
1
 10
198.650001
 20
205.311073
 30
0.0
 10
195.301044
 20
193.776478
 30
0.0
 10
198.208762
 20
188.162809
 30
0.0
 10
208.409840
 20
186.465069
 30
0.0
  0
SPLINE
  5
112
100
AcDbEntity
  8
Layer_1
 62
7
100
AcDbSpline
 70
8
 71
3
 72
8
 73
4
 74
0
 40
0
 40
0
 40
0
 40
0
 40
1
 40
1
 40
1
 40
1
 10
208.409840
 20
186.465069
 30
0.0
 10
209.284159
 20
186.319592
 30
0.0
 10
211.670997
 20
186.007408
 30
0.0
 10
213.714006
 20
185.773743
 30
0.0
  0
SPLINE
  5
113
100
AcDbEntity
  8
Layer_1
 62
7
100
AcDbSpline
 70
8
 71
3
 72
8
 73
4
 74
0
 40
0
 40
0
 40
0
 40
0
 40
1
 40
1
 40
1
 40
1
 10
213.714006
 20
185.773743
 30
0.0
 10
223.976867
 20
184.599855
 30
0.0
 10
227.391906
 20
183.880849
 30
0.0
 10
231.284528
 20
182.075690
 30
0.0
  0
SPLINE
  5
114
100
AcDbEntity
  8
Layer_1
 62
7
100
AcDbSpline
 70
8
 71
3
 72
8
 73
4
 74
0
 40
0
 40
0
 40
0
 40
0
 40
1
 40
1
 40
1
 40
1
 10
231.284528
 20
182.075690
 30
0.0
 10
237.025056
 20
179.413589
 30
0.0
 10
238.712257
 20
178.676424
 30
0.0
 10
240.192763
 20
178.177222
 30
0.0
  0
SPLINE
  5
115
100
AcDbEntity
  8
Layer_1
 62
7
100
AcDbSpline
 70
8
 71
3
 72
8
 73
4
 74
0
 40
0
 40
0
 40
0
 40
0
 40
1
 40
1
 40
1
 40
1
 10
240.192763
 20
178.177222
 30
0.0
 10
251.569494
 20
174.341130
 30
0.0
 10
261.501050
 20
176.107048
 30
0.0
 10
266.448360
 20
182.845610
 30
0.0
  0
SPLINE
  5
116
100
AcDbEntity
  8
Layer_1
 62
7
100
AcDbSpline
 70
8
 71
3
 72
8
 73
4
 74
0
 40
0
 40
0
 40
0
 40
0
 40
1
 40
1
 40
1
 40
1
 10
266.448360
 20
182.845610
 30
0.0
 10
266.973160
 20
183.560425
 30
0.0
 10
267.624415
 20
184.619060
 30
0.0
 10
267.896863
 20
185.199421
 30
0.0
  0
LWPOLYLINE
  5
117
100
AcDbEntity
  8
Layer_1
 62
7
100
AcDbPolyline
 90
3
 70
0
 10
220.848922
 20
249.806381
 30
0.0
 10
221.085039
 20
247.493723
 30
0.0
 10
220.013683
 20
246.243543
 30
0.0
  0
SPLINE
  5
118
100
AcDbEntity
  8
Layer_1
 62
7
100
AcDbSpline
 70
8
 71
3
 72
8
 73
4
 74
0
 40
0
 40
0
 40
0
 40
0
 40
1
 40
1
 40
1
 40
1
 10
269.346487
 20
186.368068
 30
0.0
 10
272.017164
 20
186.684782
 30
0.0
 10
273.737700
 20
186.975569
 30
0.0
 10
277.126516
 20
187.684741
 30
0.0
  0
SPLINE
  5
119
100
AcDbEntity
  8
Layer_1
 62
7
100
AcDbSpline
 70
8
 71
3
 72
8
 73
4
 74
0
 40
0
 40
0
 40
0
 40
0
 40
1
 40
1
 40
1
 40
1
 10
277.126516
 20
187.684741
 30
0.0
 10
282.531806
 20
188.815891
 30
0.0
 10
284.989733
 20
189.223531
 30
0.0
 10
288.101631
 20
189.500165
 30
0.0
  0
SPLINE
  5
11a
100
AcDbEntity
  8
Layer_1
 62
7
100
AcDbSpline
 70
8
 71
3
 72
8
 73
4
 74
0
 40
0
 40
0
 40
0
 40
0
 40
1
 40
1
 40
1
 40
1
 10
288.101631
 20
189.500165
 30
0.0
 10
291.584225
 20
189.809759
 30
0.0
 10
293.454273
 20
189.712013
 30
0.0
 10
299.663568
 20
188.905861
 30
0.0
  0
SPLINE
  5
11b
100
AcDbEntity
  8
Layer_1
 62
7
100
AcDbSpline
 70
8
 71
3
 72
8
 73
4
 74
0
 40
0
 40
0
 40
0
 40
0
 40
1
 40
1
 40
1
 40
1
 10
299.663568
 20
188.905861
 30
0.0
 10
305.217474
 20
188.184788
 30
0.0
 10
308.327526
 20
187.936380
 30
0.0
 10
311.298277
 20
187.978319
 30
0.0
  0
LWPOLYLINE
  5
11c
100
AcDbEntity
  8
Layer_1
 62
7
100
AcDbPolyline
 90
3
 70
0
 10
267.896863
 20
185.199421
 30
0.0
 10
268.392573
 20
186.254804
 30
0.0
 10
269.346487
 20
186.368068
 30
0.0
  0
SPLINE
  5
11d
100
AcDbEntity
  8
Layer_1
 62
7
100
AcDbSpline
 70
8
 71
3
 72
8
 73
4
 74
0
 40
0
 40
0
 40
0
 40
0
 40
1
 40
1
 40
1
 40
1
 10
313.638901
 20
186.956465
 30
0.0
 10
314.764294
 20
183.423140
 30
0.0
 10
318.241149
 20
178.986048
 30
0.0
 10
321.329236
 20
177.143359
 30
0.0
  0
SPLINE
  5
11e
100
AcDbEntity
  8
Layer_1
 62
7
100
AcDbSpline
 70
8
 71
3
 72
8
 73
4
 74
0
 40
0
 40
0
 40
0
 40
0
 40
1
 40
1
 40
1
 40
1
 10
321.329236
 20
177.143359
 30
0.0
 10
323.225636
 20
176.011769
 30
0.0
 10
325.831963
 20
175.038331
 30
0.0
 10
327.781344
 20
174.736130
 30
0.0
  0
SPLINE
  5
11f
100
AcDbEntity
  8
Layer_1
 62
7
100
AcDbSpline
 70
8
 71
3
 72
8
 73
4
 74
0
 40
0
 40
0
 40
0
 40
0
 40
1
 40
1
 40
1
 40
1
 10
327.781344
 20
174.736130
 30
0.0
 10
328.068451
 20
174.691618
 30
0.0
 10
329.591073
 20
174.703223
 30
0.0
 10
331.163775
 20
174.759988
 30
0.0
  0
SPLINE
  5
120
100
AcDbEntity
  8
Layer_1
 62
7
100
AcDbSpline
 70
8
 71
3
 72
8
 73
4
 74
0
 40
0
 40
0
 40
0
 40
0
 40
1
 40
1
 40
1
 40
1
 10
331.163775
 20
174.759988
 30
0.0
 10
333.689504
 20
174.851211
 30
0.0
 10
334.244665
 20
174.929284
 30
0.0
 10
335.919003
 20
175.439218
 30
0.0
  0
SPLINE
  5
121
100
AcDbEntity
  8
Layer_1
 62
7
100
AcDbSpline
 70
8
 71
3
 72
8
 73
4
 74
0
 40
0
 40
0
 40
0
 40
0
 40
1
 40
1
 40
1
 40
1
 10
335.919003
 20
175.439218
 30
0.0
 10
342.077284
 20
177.314810
 30
0.0
 10
347.069208
 20
180.904079
 30
0.0
 10
352.207855
 20
187.147144
 30
0.0
  0
SPLINE
  5
122
100
AcDbEntity
  8
Layer_1
 62
7
100
AcDbSpline
 70
8
 71
3
 72
8
 73
4
 74
0
 40
0
 40
0
 40
0
 40
0
 40
1
 40
1
 40
1
 40
1
 10
352.207855
 20
187.147144
 30
0.0
 10
354.767825
 20
190.257314
 30
0.0
 10
356.429417
 20
191.874087
 30
0.0
 10
358.944826
 20
193.704031
 30
0.0
  0
SPLINE
  5
123
100
AcDbEntity
  8
Layer_1
 62
7
100
AcDbSpline
 70
8
 71
3
 72
8
 73
4
 74
0
 40
0
 40
0
 40
0
 40
0
 40
1
 40
1
 40
1
 40
1
 10
358.944826
 20
193.704031
 30
0.0
 10
361.325323
 20
195.435851
 30
0.0
 10
362.930754
 20
196.404758
 30
0.0
 10
368.314706
 20
199.360402
 30
0.0
  0
SPLINE
  5
124
100
AcDbEntity
  8
Layer_1
 62
7
100
AcDbSpline
 70
8
 71
3
 72
8
 73
4
 74
0
 40
0
 40
0
 40
0
 40
0
 40
1
 40
1
 40
1
 40
1
 10
368.314706
 20
199.360402
 30
0.0
 10
374.265120
 20
202.627013
 30
0.0
 10
375.920923
 20
203.729124
 30
0.0
 10
377.611760
 20
205.541026
 30
0.0
  0
SPLINE
  5
125
100
AcDbEntity
  8
Layer_1
 62
7
100
AcDbSpline
 70
8
 71
3
 72
8
 73
4
 74
0
 40
0
 40
0
 40
0
 40
0
 40
1
 40
1
 40
1
 40
1
 10
377.611760
 20
205.541026
 30
0.0
 10
382.014161
 20
210.258653
 30
0.0
 10
381.118878
 20
215.451866
 30
0.0
 10
374.514759
 20
223.510856
 30
0.0
  0
SPLINE
  5
126
100
AcDbEntity
  8
Layer_1
 62
7
100
AcDbSpline
 70
8
 71
3
 72
8
 73
4
 74
0
 40
0
 40
0
 40
0
 40
0
 40
1
 40
1
 40
1
 40
1
 10
374.514759
 20
223.510856
 30
0.0
 10
372.140171
 20
226.408546
 30
0.0
 10
371.812494
 20
227.167483
 30
0.0
 10
370.147390
 20
233.616145
 30
0.0
  0
SPLINE
  5
127
100
AcDbEntity
  8
Layer_1
 62
7
100
AcDbSpline
 70
8
 71
3
 72
8
 73
4
 74
0
 40
0
 40
0
 40
0
 40
0
 40
1
 40
1
 40
1
 40
1
 10
370.147390
 20
233.616145
 30
0.0
 10
368.652479
 20
239.405679
 30
0.0
 10
367.883377
 20
241.236185
 30
0.0
 10
366.115541
 20
243.211735
 30
0.0
  0
SPLINE
  5
128
100
AcDbEntity
  8
Layer_1
 62
7
100
AcDbSpline
 70
8
 71
3
 72
8
 73
4
 74
0
 40
0
 40
0
 40
0
 40
0
 40
1
 40
1
 40
1
 40
1
 10
366.115541
 20
243.211735
 30
0.0
 10
365.250183
 20
244.178767
 30
0.0
 10
362.767135
 20
246.020940
 30
0.0
 10
362.336707
 20
246.014863
 30
0.0
  0
SPLINE
  5
129
100
AcDbEntity
  8
Layer_1
 62
7
100
AcDbSpline
 70
8
 71
3
 72
8
 73
4
 74
0
 40
0
 40
0
 40
0
 40
0
 40
1
 40
1
 40
1
 40
1
 10
362.336707
 20
246.014863
 30
0.0
 10
361.806230
 20
246.007374
 30
0.0
 10
361.764885
 20
246.481774
 30
0.0
 10
362.160551
 20
248.035343
 30
0.0
  0
SPLINE
  5
12a
100
AcDbEntity
  8
Layer_1
 62
7
100
AcDbSpline
 70
8
 71
3
 72
8
 73
4
 74
0
 40
0
 40
0
 40
0
 40
0
 40
1
 40
1
 40
1
 40
1
 10
362.160551
 20
248.035343
 30
0.0
 10
363.180939
 20
252.041816
 30
0.0
 10
363.603914
 20
255.387248
 30
0.0
 10
363.649132
 20
259.812150
 30
0.0
  0
SPLINE
  5
12b
100
AcDbEntity
  8
Layer_1
 62
7
100
AcDbSpline
 70
8
 71
3
 72
8
 73
4
 74
0
 40
0
 40
0
 40
0
 40
0
 40
1
 40
1
 40
1
 40
1
 10
363.649132
 20
259.812150
 30
0.0
 10
363.715029
 20
266.260289
 30
0.0
 10
362.705027
 20
272.485309
 30
0.0
 10
360.508577
 20
279.183554
 30
0.0
  0
SPLINE
  5
12c
100
AcDbEntity
  8
Layer_1
 62
7
100
AcDbSpline
 70
8
 71
3
 72
8
 73
4
 74
0
 40
0
 40
0
 40
0
 40
0
 40
1
 40
1
 40
1
 40
1
 10
360.508577
 20
279.183554
 30
0.0
 10
356.776624
 20
290.564441
 30
0.0
 10
350.345715
 20
301.644463
 30
0.0
 10
339.798193
 20
314.861825
 30
0.0
  0
SPLINE
  5
12d
100
AcDbEntity
  8
Layer_1
 62
7
100
AcDbSpline
 70
8
 71
3
 72
8
 73
4
 74
0
 40
0
 40
0
 40
0
 40
0
 40
1
 40
1
 40
1
 40
1
 10
339.798193
 20
314.861825
 30
0.0
 10
329.859426
 20
327.316340
 30
0.0
 10
326.457363
 20
333.057457
 30
0.0
 10
324.421234
 20
340.821798
 30
0.0
  0
SPLINE
  5
12e
100
AcDbEntity
  8
Layer_1
 62
7
100
AcDbSpline
 70
8
 71
3
 72
8
 73
4
 74
0
 40
0
 40
0
 40
0
 40
0
 40
1
 40
1
 40
1
 40
1
 10
324.421234
 20
340.821798
 30
0.0
 10
323.547913
 20
344.152008
 30
0.0
 10
323.392132
 20
346.070389
 30
0.0
 10
323.171238
 20
356.143563
 30
0.0
  0
SPLINE
  5
12f
100
AcDbEntity
  8
Layer_1
 62
7
100
AcDbSpline
 70
8
 71
3
 72
8
 73
4
 74
0
 40
0
 40
0
 40
0
 40
0
 40
1
 40
1
 40
1
 40
1
 10
323.171238
 20
356.143563
 30
0.0
 10
322.924997
 20
367.416910
 30
0.0
 10
322.497756
 20
372.856512
 30
0.0
 10
321.383455
 20
378.911456
 30
0.0
  0
SPLINE
  5
130
100
AcDbEntity
  8
Layer_1
 62
7
100
AcDbSpline
 70
8
 71
3
 72
8
 73
4
 74
0
 40
0
 40
0
 40
0
 40
0
 40
1
 40
1
 40
1
 40
1
 10
321.383455
 20
378.911456
 30
0.0
 10
320.362545
 20
384.458985
 30
0.0
 10
318.987695
 20
388.796125
 30
0.0
 10
316.920410
 20
392.981019
 30
0.0
  0
SPLINE
  5
131
100
AcDbEntity
  8
Layer_1
 62
7
100
AcDbSpline
 70
8
 71
3
 72
8
 73
4
 74
0
 40
0
 40
0
 40
0
 40
0
 40
1
 40
1
 40
1
 40
1
 10
316.920410
 20
392.981019
 30
0.0
 10
315.313013
 20
396.234930
 30
0.0
 10
313.732536
 20
398.543586
 30
0.0
 10
311.561085
 20
400.812739
 30
0.0
  0
SPLINE
  5
132
100
AcDbEntity
  8
Layer_1
 62
7
100
AcDbSpline
 70
8
 71
3
 72
8
 73
4
 74
0
 40
0
 40
0
 40
0
 40
0
 40
1
 40
1
 40
1
 40
1
 10
311.561085
 20
400.812739
 30
0.0
 10
307.332359
 20
405.231748
 30
0.0
 10
301.962066
 20
407.884751
 30
0.0
 10
295.261286
 20
408.867688
 30
0.0
  0
SPLINE
  5
133
100
AcDbEntity
  8
Layer_1
 62
7
100
AcDbSpline
 70
8
 71
3
 72
8
 73
4
 74
0
 40
0
 40
0
 40
0
 40
0
 40
1
 40
1
 40
1
 40
1
 10
295.261286
 20
408.867688
 30
0.0
 10
293.893535
 20
409.068345
 30
0.0
 10
291.404853
 20
409.144803
 30
0.0
 10
288.888768
 20
409.109822
 30
0.0
  0
LWPOLYLINE
  5
134
100
AcDbEntity
  8
Layer_1
 62
7
100
AcDbPolyline
 90
3
 70
0
 10
311.298277
 20
187.978319
 30
0.0
 10
313.303931
 20
188.006634
 30
0.0
 10
313.638901
 20
186.956465
 30
0.0
  0
SPLINE
  5
135
100
AcDbEntity
  8
Layer_1
 62
7
100
AcDbSpline
 70
8
 71
3
 72
8
 73
4
 74
0
 40
0
 40
0
 40
0
 40
0
 40
1
 40
1
 40
1
 40
1
 10
294.697804
 20
376.776620
 30
0.0
 10
301.195145
 20
376.868345
 30
0.0
 10
306.566502
 20
368.818001
 30
0.0
 10
305.904547
 20
359.982692
 30
0.0
  0
SPLINE
  5
136
100
AcDbEntity
  8
Layer_1
 62
7
100
AcDbSpline
 70
8
 71
3
 72
8
 73
4
 74
0
 40
0
 40
0
 40
0
 40
0
 40
1
 40
1
 40
1
 40
1
 10
305.904547
 20
359.982692
 30
0.0
 10
305.679771
 20
356.982544
 30
0.0
 10
304.948634
 20
354.559234
 30
0.0
 10
303.511831
 20
352.056726
 30
0.0
  0
SPLINE
  5
137
100
AcDbEntity
  8
Layer_1
 62
7
100
AcDbSpline
 70
8
 71
3
 72
8
 73
4
 74
0
 40
0
 40
0
 40
0
 40
0
 40
1
 40
1
 40
1
 40
1
 10
303.511831
 20
352.056726
 30
0.0
 10
303.176056
 20
351.471904
 30
0.0
 10
302.822647
 20
350.999467
 30
0.0
 10
302.727089
 20
351.008120
 30
0.0
  0
SPLINE
  5
138
100
AcDbEntity
  8
Layer_1
 62
7
100
AcDbSpline
 70
8
 71
3
 72
8
 73
4
 74
0
 40
0
 40
0
 40
0
 40
0
 40
1
 40
1
 40
1
 40
1
 10
302.727089
 20
351.008120
 30
0.0
 10
302.499290
 20
351.028353
 30
0.0
 10
297.607675
 20
353.015092
 30
0.0
 10
297.490230
 20
353.135146
 30
0.0
  0
SPLINE
  5
139
100
AcDbEntity
  8
Layer_1
 62
7
100
AcDbSpline
 70
8
 71
3
 72
8
 73
4
 74
0
 40
0
 40
0
 40
0
 40
0
 40
1
 40
1
 40
1
 40
1
 10
297.490230
 20
353.135146
 30
0.0
 10
297.440501
 20
353.185899
 30
0.0
 10
297.706335
 20
353.636729
 30
0.0
 10
298.080743
 20
354.135424
 30
0.0
  0
SPLINE
  5
13a
100
AcDbEntity
  8
Layer_1
 62
7
100
AcDbSpline
 70
8
 71
3
 72
8
 73
4
 74
0
 40
0
 40
0
 40
0
 40
0
 40
1
 40
1
 40
1
 40
1
 10
298.080743
 20
354.135424
 30
0.0
 10
299.214592
 20
355.645693
 30
0.0
 10
299.609022
 20
357.250055
 30
0.0
 10
299.528190
 20
360.029421
 30
0.0
  0
SPLINE
  5
13b
100
AcDbEntity
  8
Layer_1
 62
7
100
AcDbSpline
 70
8
 71
3
 72
8
 73
4
 74
0
 40
0
 40
0
 40
0
 40
0
 40
1
 40
1
 40
1
 40
1
 10
299.528190
 20
360.029421
 30
0.0
 10
299.451790
 20
362.656876
 30
0.0
 10
298.704556
 20
364.813976
 30
0.0
 10
297.336435
 20
366.360414
 30
0.0
  0
SPLINE
  5
13c
100
AcDbEntity
  8
Layer_1
 62
7
100
AcDbSpline
 70
8
 71
3
 72
8
 73
4
 74
0
 40
0
 40
0
 40
0
 40
0
 40
1
 40
1
 40
1
 40
1
 10
297.336435
 20
366.360414
 30
0.0
 10
296.470921
 20
367.338723
 30
0.0
 10
295.799789
 20
367.663003
 30
0.0
 10
294.657332
 20
367.655321
 30
0.0
  0
SPLINE
  5
13d
100
AcDbEntity
  8
Layer_1
 62
7
100
AcDbSpline
 70
8
 71
3
 72
8
 73
4
 74
0
 40
0
 40
0
 40
0
 40
0
 40
1
 40
1
 40
1
 40
1
 10
294.657332
 20
367.655321
 30
0.0
 10
291.735296
 20
367.635740
 30
0.0
 10
289.653984
 20
364.103186
 30
0.0
 10
289.729681
 20
359.292014
 30
0.0
  0
SPLINE
  5
13e
100
AcDbEntity
  8
Layer_1
 62
7
100
AcDbSpline
 70
8
 71
3
 72
8
 73
4
 74
0
 40
0
 40
0
 40
0
 40
0
 40
1
 40
1
 40
1
 40
1
 10
289.729681
 20
359.292014
 30
0.0
 10
289.757592
 20
357.535663
 30
0.0
 10
289.722544
 20
357.229374
 30
0.0
 10
289.500826
 20
357.298369
 30
0.0
  0
SPLINE
  5
13f
100
AcDbEntity
  8
Layer_1
 62
7
100
AcDbSpline
 70
8
 71
3
 72
8
 73
4
 74
0
 40
0
 40
0
 40
0
 40
0
 40
1
 40
1
 40
1
 40
1
 10
289.500826
 20
357.298369
 30
0.0
 10
288.885582
 20
357.489868
 30
0.0
 10
284.837196
 20
358.870556
 30
0.0
 10
284.477909
 20
359.011668
 30
0.0
  0
SPLINE
  5
140
100
AcDbEntity
  8
Layer_1
 62
7
100
AcDbSpline
 70
8
 71
3
 72
8
 73
4
 74
0
 40
0
 40
0
 40
0
 40
0
 40
1
 40
1
 40
1
 40
1
 10
284.477909
 20
359.011668
 30
0.0
 10
284.095119
 20
359.162006
 30
0.0
 10
284.082633
 20
359.238351
 30
0.0
 10
284.028329
 20
361.809696
 30
0.0
  0
SPLINE
  5
141
100
AcDbEntity
  8
Layer_1
 62
7
100
AcDbSpline
 70
8
 71
3
 72
8
 73
4
 74
0
 40
0
 40
0
 40
0
 40
0
 40
1
 40
1
 40
1
 40
1
 10
284.028329
 20
361.809696
 30
0.0
 10
283.960272
 20
365.032302
 30
0.0
 10
284.351122
 20
367.126896
 30
0.0
 10
285.526377
 20
369.835900
 30
0.0
  0
SPLINE
  5
142
100
AcDbEntity
  8
Layer_1
 62
7
100
AcDbSpline
 70
8
 71
3
 72
8
 73
4
 74
0
 40
0
 40
0
 40
0
 40
0
 40
1
 40
1
 40
1
 40
1
 10
285.526377
 20
369.835900
 30
0.0
 10
286.189628
 20
371.364739
 30
0.0
 10
286.516319
 20
371.847896
 30
0.0
 10
287.925713
 20
373.392605
 30
0.0
  0
SPLINE
  5
143
100
AcDbEntity
  8
Layer_1
 62
7
100
AcDbSpline
 70
8
 71
3
 72
8
 73
4
 74
0
 40
0
 40
0
 40
0
 40
0
 40
1
 40
1
 40
1
 40
1
 10
287.925713
 20
373.392605
 30
0.0
 10
290.172005
 20
375.854557
 30
0.0
 10
291.937602
 20
376.737653
 30
0.0
 10
294.697804
 20
376.776620
 30
0.0
  0
LWPOLYLINE
  5
144
100
AcDbEntity
  8
Layer_1
 62
7
100
AcDbPolyline
 90
1
 70
1
 10
288.888768
 20
409.109822
 30
0.0
  0
SPLINE
  5
145
100
AcDbEntity
  8
Layer_1
 62
7
100
AcDbSpline
 70
8
 71
3
 72
8
 73
4
 74
0
 40
0
 40
0
 40
0
 40
0
 40
1
 40
1
 40
1
 40
1
 10
267.382374
 20
374.085853
 30
0.0
 10
268.151691
 20
374.093936
 30
0.0
 10
268.927837
 20
373.933229
 30
0.0
 10
269.635900
 20
373.603243
 30
0.0
  0
SPLINE
  5
146
100
AcDbEntity
  8
Layer_1
 62
7
100
AcDbSpline
 70
8
 71
3
 72
8
 73
4
 74
0
 40
0
 40
0
 40
0
 40
0
 40
1
 40
1
 40
1
 40
1
 10
269.635900
 20
373.603243
 30
0.0
 10
271.518605
 20
372.725827
 30
0.0
 10
273.592774
 20
370.239755
 30
0.0
 10
274.615147
 20
367.637187
 30
0.0
  0
SPLINE
  5
147
100
AcDbEntity
  8
Layer_1
 62
7
100
AcDbSpline
 70
8
 71
3
 72
8
 73
4
 74
0
 40
0
 40
0
 40
0
 40
0
 40
1
 40
1
 40
1
 40
1
 10
274.615147
 20
367.637187
 30
0.0
 10
275.575356
 20
365.192868
 30
0.0
 10
275.721986
 20
364.435696
 30
0.0
 10
275.789521
 20
361.556640
 30
0.0
  0
LWPOLYLINE
  5
148
100
AcDbEntity
  8
Layer_1
 62
7
100
AcDbPolyline
 90
1
 70
1
 10
294.697804
 20
376.776620
 30
0.0
  0
SPLINE
  5
149
100
AcDbEntity
  8
Layer_1
 62
7
100
AcDbSpline
 70
8
 71
3
 72
8
 73
4
 74
0
 40
0
 40
0
 40
0
 40
0
 40
1
 40
1
 40
1
 40
1
 10
274.307793
 20
358.136612
 30
0.0
 10
273.457290
 20
357.758447
 30
0.0
 10
272.570951
 20
357.302189
 30
0.0
 10
272.338881
 20
357.123378
 30
0.0
  0
SPLINE
  5
14a
100
AcDbEntity
  8
Layer_1
 62
7
100
AcDbSpline
 70
8
 71
3
 72
8
 73
4
 74
0
 40
0
 40
0
 40
0
 40
0
 40
1
 40
1
 40
1
 40
1
 10
272.338881
 20
357.123378
 30
0.0
 10
272.106812
 20
356.944556
 30
0.0
 10
271.867715
 20
356.797653
 30
0.0
 10
271.807855
 20
356.796808
 30
0.0
  0
SPLINE
  5
14b
100
AcDbEntity
  8
Layer_1
 62
7
100
AcDbSpline
 70
8
 71
3
 72
8
 73
4
 74
0
 40
0
 40
0
 40
0
 40
0
 40
1
 40
1
 40
1
 40
1
 10
271.807855
 20
356.796808
 30
0.0
 10
271.747996
 20
356.795962
 30
0.0
 10
271.636084
 20
357.682575
 30
0.0
 10
271.559016
 20
358.768512
 30
0.0
  0
SPLINE
  5
14c
100
AcDbEntity
  8
Layer_1
 62
7
100
AcDbSpline
 70
8
 71
3
 72
8
 73
4
 74
0
 40
0
 40
0
 40
0
 40
0
 40
1
 40
1
 40
1
 40
1
 10
271.559016
 20
358.768512
 30
0.0
 10
271.293100
 20
362.515169
 30
0.0
 10
269.718884
 20
365.301968
 30
0.0
 10
267.750834
 20
365.508629
 30
0.0
  0
SPLINE
  5
14d
100
AcDbEntity
  8
Layer_1
 62
7
100
AcDbSpline
 70
8
 71
3
 72
8
 73
4
 74
0
 40
0
 40
0
 40
0
 40
0
 40
1
 40
1
 40
1
 40
1
 10
267.750834
 20
365.508629
 30
0.0
 10
265.675099
 20
365.726598
 30
0.0
 10
264.357748
 20
363.327485
 30
0.0
 10
264.424194
 20
359.447021
 30
0.0
  0
SPLINE
  5
14e
100
AcDbEntity
  8
Layer_1
 62
7
100
AcDbSpline
 70
8
 71
3
 72
8
 73
4
 74
0
 40
0
 40
0
 40
0
 40
0
 40
1
 40
1
 40
1
 40
1
 10
264.424194
 20
359.447021
 30
0.0
 10
264.470339
 20
356.752410
 30
0.0
 10
265.190635
 20
354.533672
 30
0.0
 10
266.523094
 20
352.984483
 30
0.0
  0
LWPOLYLINE
  5
14f
100
AcDbEntity
  8
Layer_1
 62
7
100
AcDbPolyline
 90
3
 70
0
 10
275.789521
 20
361.556640
 30
0.0
 10
275.853278
 20
358.822623
 30
0.0
 10
274.307793
 20
358.136612
 30
0.0
  0
SPLINE
  5
150
100
AcDbEntity
  8
Layer_1
 62
7
100
AcDbSpline
 70
8
 71
3
 72
8
 73
4
 74
0
 40
0
 40
0
 40
0
 40
0
 40
1
 40
1
 40
1
 40
1
 10
265.822477
 20
351.348838
 30
0.0
 10
265.142865
 20
350.790668
 30
0.0
 10
264.497592
 20
350.276014
 30
0.0
 10
264.388284
 20
350.204235
 30
0.0
  0
SPLINE
  5
151
100
AcDbEntity
  8
Layer_1
 62
7
100
AcDbSpline
 70
8
 71
3
 72
8
 73
4
 74
0
 40
0
 40
0
 40
0
 40
0
 40
1
 40
1
 40
1
 40
1
 10
264.388284
 20
350.204235
 30
0.0
 10
264.159544
 20
350.054054
 30
0.0
 10
262.736498
 20
351.898734
 30
0.0
 10
262.102296
 20
353.167344
 30
0.0
  0
SPLINE
  5
152
100
AcDbEntity
  8
Layer_1
 62
7
100
AcDbSpline
 70
8
 71
3
 72
8
 73
4
 74
0
 40
0
 40
0
 40
0
 40
0
 40
1
 40
1
 40
1
 40
1
 10
262.102296
 20
353.167344
 30
0.0
 10
261.407481
 20
354.557201
 30
0.0
 10
260.734982
 20
356.596023
 30
0.0
 10
260.429258
 20
358.238050
 30
0.0
  0
SPLINE
  5
153
100
AcDbEntity
  8
Layer_1
 62
7
100
AcDbSpline
 70
8
 71
3
 72
8
 73
4
 74
0
 40
0
 40
0
 40
0
 40
0
 40
1
 40
1
 40
1
 40
1
 10
260.429258
 20
358.238050
 30
0.0
 10
260.090085
 20
360.059722
 30
0.0
 10
259.984123
 20
363.253341
 30
0.0
 10
260.212546
 20
364.820496
 30
0.0
  0
SPLINE
  5
154
100
AcDbEntity
  8
Layer_1
 62
7
100
AcDbSpline
 70
8
 71
3
 72
8
 73
4
 74
0
 40
0
 40
0
 40
0
 40
0
 40
1
 40
1
 40
1
 40
1
 10
260.212546
 20
364.820496
 30
0.0
 10
260.809048
 20
368.912985
 30
0.0
 10
262.747554
 20
372.325123
 30
0.0
 10
265.172202
 20
373.555420
 30
0.0
  0
SPLINE
  5
155
100
AcDbEntity
  8
Layer_1
 62
7
100
AcDbSpline
 70
8
 71
3
 72
8
 73
4
 74
0
 40
0
 40
0
 40
0
 40
0
 40
1
 40
1
 40
1
 40
1
 10
265.172202
 20
373.555420
 30
0.0
 10
265.851176
 20
373.899944
 30
0.0
 10
266.613100
 20
374.077791
 30
0.0
 10
267.382418
 20
374.085854
 30
0.0
  0
LWPOLYLINE
  5
156
100
AcDbEntity
  8
Layer_1
 62
7
100
AcDbPolyline
 90
3
 70
0
 10
266.523094
 20
352.984483
 30
0.0
 10
267.058166
 20
352.364747
 30
0.0
 10
265.822477
 20
351.348838
 30
0.0
  0
SPLINE
  5
157
100
AcDbEntity
  8
Layer_1
 62
7
100
AcDbSpline
 70
8
 71
3
 72
8
 73
4
 74
0
 40
0
 40
0
 40
0
 40
0
 40
1
 40
1
 40
1
 40
1
 10
280.250853
 20
357.096159
 30
0.0
 10
283.808332
 20
357.141936
 30
0.0
 10
284.942446
 20
356.790262
 30
0.0
 10
290.217929
 20
354.002717
 30
0.0
  0
SPLINE
  5
158
100
AcDbEntity
  8
Layer_1
 62
7
100
AcDbSpline
 70
8
 71
3
 72
8
 73
4
 74
0
 40
0
 40
0
 40
0
 40
0
 40
1
 40
1
 40
1
 40
1
 10
290.217929
 20
354.002717
 30
0.0
 10
292.386239
 20
352.856984
 30
0.0
 10
295.150105
 20
351.586921
 30
0.0
 10
297.323726
 20
350.736489
 30
0.0
  0
SPLINE
  5
159
100
AcDbEntity
  8
Layer_1
 62
7
100
AcDbSpline
 70
8
 71
3
 72
8
 73
4
 74
0
 40
0
 40
0
 40
0
 40
0
 40
1
 40
1
 40
1
 40
1
 10
297.323726
 20
350.736489
 30
0.0
 10
301.681130
 20
349.031643
 30
0.0
 10
303.188558
 20
348.270225
 30
0.0
 10
304.283329
 20
347.222915
 30
0.0
  0
SPLINE
  5
15a
100
AcDbEntity
  8
Layer_1
 62
7
100
AcDbSpline
 70
8
 71
3
 72
8
 73
4
 74
0
 40
0
 40
0
 40
0
 40
0
 40
1
 40
1
 40
1
 40
1
 10
304.283329
 20
347.222915
 30
0.0
 10
306.044889
 20
345.537723
 30
0.0
 10
306.412564
 20
343.143216
 30
0.0
 10
305.279228
 20
340.725264
 30
0.0
  0
SPLINE
  5
15b
100
AcDbEntity
  8
Layer_1
 62
7
100
AcDbSpline
 70
8
 71
3
 72
8
 73
4
 74
0
 40
0
 40
0
 40
0
 40
0
 40
1
 40
1
 40
1
 40
1
 10
305.279228
 20
340.725264
 30
0.0
 10
304.105862
 20
338.221929
 30
0.0
 10
301.199106
 20
335.676687
 30
0.0
 10
297.603441
 20
334.001015
 30
0.0
  0
SPLINE
  5
15c
100
AcDbEntity
  8
Layer_1
 62
7
100
AcDbSpline
 70
8
 71
3
 72
8
 73
4
 74
0
 40
0
 40
0
 40
0
 40
0
 40
1
 40
1
 40
1
 40
1
 10
297.603441
 20
334.001015
 30
0.0
 10
294.953679
 20
332.766160
 30
0.0
 10
294.057952
 20
332.278965
 30
0.0
 10
291.989709
 20
330.954588
 30
0.0
  0
SPLINE
  5
15d
100
AcDbEntity
  8
Layer_1
 62
7
100
AcDbSpline
 70
8
 71
3
 72
8
 73
4
 74
0
 40
0
 40
0
 40
0
 40
0
 40
1
 40
1
 40
1
 40
1
 10
291.989709
 20
330.954588
 30
0.0
 10
289.718215
 20
329.500051
 30
0.0
 10
286.451758
 20
327.838617
 30
0.0
 10
284.282594
 20
327.034275
 30
0.0
  0
SPLINE
  5
15e
100
AcDbEntity
  8
Layer_1
 62
7
100
AcDbSpline
 70
8
 71
3
 72
8
 73
4
 74
0
 40
0
 40
0
 40
0
 40
0
 40
1
 40
1
 40
1
 40
1
 10
284.282594
 20
327.034275
 30
0.0
 10
282.030376
 20
326.199120
 30
0.0
 10
279.725757
 20
326.101494
 30
0.0
 10
277.727841
 20
326.755068
 30
0.0
  0
SPLINE
  5
15f
100
AcDbEntity
  8
Layer_1
 62
7
100
AcDbSpline
 70
8
 71
3
 72
8
 73
4
 74
0
 40
0
 40
0
 40
0
 40
0
 40
1
 40
1
 40
1
 40
1
 10
277.727841
 20
326.755068
 30
0.0
 10
275.821650
 20
327.378642
 30
0.0
 10
273.156173
 20
329.055229
 30
0.0
 10
270.626535
 20
331.223864
 30
0.0
  0
SPLINE
  5
160
100
AcDbEntity
  8
Layer_1
 62
7
100
AcDbSpline
 70
8
 71
3
 72
8
 73
4
 74
0
 40
0
 40
0
 40
0
 40
0
 40
1
 40
1
 40
1
 40
1
 10
270.626535
 20
331.223864
 30
0.0
 10
269.800791
 20
331.931761
 30
0.0
 10
268.167796
 20
333.193894
 30
0.0
 10
266.999121
 20
334.026953
 30
0.0
  0
SPLINE
  5
161
100
AcDbEntity
  8
Layer_1
 62
7
100
AcDbSpline
 70
8
 71
3
 72
8
 73
4
 74
0
 40
0
 40
0
 40
0
 40
0
 40
1
 40
1
 40
1
 40
1
 10
266.999121
 20
334.026953
 30
0.0
 10
263.443473
 20
336.561490
 30
0.0
 10
262.127136
 20
337.906576
 30
0.0
 10
261.138714
 20
340.019632
 30
0.0
  0
SPLINE
  5
162
100
AcDbEntity
  8
Layer_1
 62
7
100
AcDbSpline
 70
8
 71
3
 72
8
 73
4
 74
0
 40
0
 40
0
 40
0
 40
0
 40
1
 40
1
 40
1
 40
1
 10
261.138714
 20
340.019632
 30
0.0
 10
260.368782
 20
341.665601
 30
0.0
 10
260.595815
 20
343.719601
 30
0.0
 10
261.677026
 20
344.906674
 30
0.0
  0
SPLINE
  5
163
100
AcDbEntity
  8
Layer_1
 62
7
100
AcDbSpline
 70
8
 71
3
 72
8
 73
4
 74
0
 40
0
 40
0
 40
0
 40
0
 40
1
 40
1
 40
1
 40
1
 10
261.677026
 20
344.906674
 30
0.0
 10
262.013444
 20
345.276029
 30
0.0
 10
263.547222
 20
346.638080
 30
0.0
 10
265.085703
 20
347.932807
 30
0.0
  0
SPLINE
  5
164
100
AcDbEntity
  8
Layer_1
 62
7
100
AcDbSpline
 70
8
 71
3
 72
8
 73
4
 74
0
 40
0
 40
0
 40
0
 40
0
 40
1
 40
1
 40
1
 40
1
 10
265.085703
 20
347.932807
 30
0.0
 10
266.624184
 20
349.227556
 30
0.0
 10
268.609991
 20
350.971141
 30
0.0
 10
269.498528
 20
351.806625
 30
0.0
  0
SPLINE
  5
165
100
AcDbEntity
  8
Layer_1
 62
7
100
AcDbSpline
 70
8
 71
3
 72
8
 73
4
 74
0
 40
0
 40
0
 40
0
 40
0
 40
1
 40
1
 40
1
 40
1
 10
269.498528
 20
351.806625
 30
0.0
 10
271.994998
 20
354.154037
 30
0.0
 10
273.043719
 20
354.974491
 30
0.0
 10
274.531576
 20
355.745633
 30
0.0
  0
SPLINE
  5
166
100
AcDbEntity
  8
Layer_1
 62
7
100
AcDbSpline
 70
8
 71
3
 72
8
 73
4
 74
0
 40
0
 40
0
 40
0
 40
0
 40
1
 40
1
 40
1
 40
1
 10
274.531576
 20
355.745633
 30
0.0
 10
276.570917
 20
356.802604
 30
0.0
 10
277.674516
 20
357.063121
 30
0.0
 10
280.250853
 20
357.096159
 30
0.0
  0
LWPOLYLINE
  5
167
100
AcDbEntity
  8
Layer_1
 62
7
100
AcDbPolyline
 90
1
 70
1
 10
267.382418
 20
374.085854
 30
0.0
  0
SPLINE
  5
168
100
AcDbEntity
  8
Layer_1
 62
7
100
AcDbSpline
 70
8
 71
3
 72
8
 73
4
 74
0
 40
0
 40
0
 40
0
 40
0
 40
1
 40
1
 40
1
 40
1
 10
284.249477
 20
354.356911
 30
0.0
 10
283.257435
 20
354.427145
 30
0.0
 10
283.136541
 20
354.395099
 30
0.0
 10
282.718313
 20
353.935916
 30
0.0
  0
SPLINE
  5
169
100
AcDbEntity
  8
Layer_1
 62
7
100
AcDbSpline
 70
8
 71
3
 72
8
 73
4
 74
0
 40
0
 40
0
 40
0
 40
0
 40
1
 40
1
 40
1
 40
1
 10
282.718313
 20
353.935916
 30
0.0
 10
282.302010
 20
353.478850
 30
0.0
 10
282.286938
 20
353.402811
 30
0.0
 10
282.526165
 20
353.034593
 30
0.0
  0
SPLINE
  5
16a
100
AcDbEntity
  8
Layer_1
 62
7
100
AcDbSpline
 70
8
 71
3
 72
8
 73
4
 74
0
 40
0
 40
0
 40
0
 40
0
 40
1
 40
1
 40
1
 40
1
 10
282.526165
 20
353.034593
 30
0.0
 10
282.669523
 20
352.813928
 30
0.0
 10
283.370301
 20
352.337803
 30
0.0
 10
284.082607
 20
351.975618
 30
0.0
  0
SPLINE
  5
16b
100
AcDbEntity
  8
Layer_1
 62
7
100
AcDbSpline
 70
8
 71
3
 72
8
 73
4
 74
0
 40
0
 40
0
 40
0
 40
0
 40
1
 40
1
 40
1
 40
1
 10
284.082607
 20
351.975618
 30
0.0
 10
284.794923
 20
351.613434
 30
0.0
 10
285.550002
 20
351.314933
 30
0.0
 10
285.760212
 20
351.311232
 30
0.0
  0
SPLINE
  5
16c
100
AcDbEntity
  8
Layer_1
 62
7
100
AcDbSpline
 70
8
 71
3
 72
8
 73
4
 74
0
 40
0
 40
0
 40
0
 40
0
 40
1
 40
1
 40
1
 40
1
 10
285.760212
 20
351.311232
 30
0.0
 10
286.378128
 20
351.300396
 30
0.0
 10
287.015864
 20
351.713579
 30
0.0
 10
287.118337
 20
352.189953
 30
0.0
  0
SPLINE
  5
16d
100
AcDbEntity
  8
Layer_1
 62
7
100
AcDbSpline
 70
8
 71
3
 72
8
 73
4
 74
0
 40
0
 40
0
 40
0
 40
0
 40
1
 40
1
 40
1
 40
1
 10
287.118337
 20
352.189953
 30
0.0
 10
287.355551
 20
353.292697
 30
0.0
 10
286.122883
 20
354.224316
 30
0.0
 10
284.249477
 20
354.356911
 30
0.0
  0
LWPOLYLINE
  5
16e
100
AcDbEntity
  8
Layer_1
 62
7
100
AcDbPolyline
 90
1
 70
1
 10
280.250853
 20
357.096159
 30
0.0
  0
SPLINE
  5
16f
100
AcDbEntity
  8
Layer_1
 62
7
100
AcDbSpline
 70
8
 71
3
 72
8
 73
4
 74
0
 40
0
 40
0
 40
0
 40
0
 40
1
 40
1
 40
1
 40
1
 10
276.002264
 20
354.218811
 30
0.0
 10
274.831675
 20
354.104155
 30
0.0
 10
273.634927
 20
353.444344
 30
0.0
 10
273.335780
 20
352.746428
 30
0.0
  0
SPLINE
  5
170
100
AcDbEntity
  8
Layer_1
 62
7
100
AcDbSpline
 70
8
 71
3
 72
8
 73
4
 74
0
 40
0
 40
0
 40
0
 40
0
 40
1
 40
1
 40
1
 40
1
 10
273.335780
 20
352.746428
 30
0.0
 10
273.076328
 20
352.141124
 30
0.0
 10
273.221172
 20
351.738689
 30
0.0
 10
273.818303
 20
351.407485
 30
0.0
  0
SPLINE
  5
171
100
AcDbEntity
  8
Layer_1
 62
7
100
AcDbSpline
 70
8
 71
3
 72
8
 73
4
 74
0
 40
0
 40
0
 40
0
 40
0
 40
1
 40
1
 40
1
 40
1
 10
273.818303
 20
351.407485
 30
0.0
 10
274.478616
 20
351.041233
 30
0.0
 10
274.724789
 20
351.076292
 30
0.0
 10
275.943657
 20
351.710977
 30
0.0
  0
SPLINE
  5
172
100
AcDbEntity
  8
Layer_1
 62
7
100
AcDbSpline
 70
8
 71
3
 72
8
 73
4
 74
0
 40
0
 40
0
 40
0
 40
0
 40
1
 40
1
 40
1
 40
1
 10
275.943657
 20
351.710977
 30
0.0
 10
276.541818
 20
352.022459
 30
0.0
 10
277.118229
 20
352.278812
 30
0.0
 10
277.222646
 20
352.280364
 30
0.0
  0
SPLINE
  5
173
100
AcDbEntity
  8
Layer_1
 62
7
100
AcDbSpline
 70
8
 71
3
 72
8
 73
4
 74
0
 40
0
 40
0
 40
0
 40
0
 40
1
 40
1
 40
1
 40
1
 10
277.222646
 20
352.280364
 30
0.0
 10
277.563608
 20
352.285433
 30
0.0
 10
277.999526
 20
352.986325
 30
0.0
 10
277.931765
 20
353.419065
 30
0.0
  0
SPLINE
  5
174
100
AcDbEntity
  8
Layer_1
 62
7
100
AcDbSpline
 70
8
 71
3
 72
8
 73
4
 74
0
 40
0
 40
0
 40
0
 40
0
 40
1
 40
1
 40
1
 40
1
 10
277.931765
 20
353.419065
 30
0.0
 10
277.833077
 20
354.049297
 30
0.0
 10
277.152260
 20
354.331399
 30
0.0
 10
276.002264
 20
354.218811
 30
0.0
  0
LWPOLYLINE
  5
175
100
AcDbEntity
  8
Layer_1
 62
7
100
AcDbPolyline
 90
1
 70
1
 10
284.249477
 20
354.356911
 30
0.0
  0
SPLINE
  5
176
100
AcDbEntity
  8
Layer_1
 62
7
100
AcDbSpline
 70
8
 71
3
 72
8
 73
4
 74
0
 40
0
 40
0
 40
0
 40
0
 40
1
 40
1
 40
1
 40
1
 10
300.273257
 20
346.070197
 30
0.0
 10
300.060207
 20
345.995842
 30
0.0
 10
299.234306
 20
345.255849
 30
0.0
 10
298.437222
 20
344.425035
 30
0.0
  0
SPLINE
  5
177
100
AcDbEntity
  8
Layer_1
 62
7
100
AcDbSpline
 70
8
 71
3
 72
8
 73
4
 74
0
 40
0
 40
0
 40
0
 40
0
 40
1
 40
1
 40
1
 40
1
 10
298.437222
 20
344.425035
 30
0.0
 10
295.748830
 20
341.622879
 30
0.0
 10
291.227532
 20
338.460493
 30
0.0
 10
287.287665
 20
336.625054
 30
0.0
  0
SPLINE
  5
178
100
AcDbEntity
  8
Layer_1
 62
7
100
AcDbSpline
 70
8
 71
3
 72
8
 73
4
 74
0
 40
0
 40
0
 40
0
 40
0
 40
1
 40
1
 40
1
 40
1
 10
287.287665
 20
336.625054
 30
0.0
 10
284.115056
 20
335.147059
 30
0.0
 10
282.587793
 20
334.702703
 30
0.0
 10
280.180981
 20
334.556025
 30
0.0
  0
SPLINE
  5
179
100
AcDbEntity
  8
Layer_1
 62
7
100
AcDbSpline
 70
8
 71
3
 72
8
 73
4
 74
0
 40
0
 40
0
 40
0
 40
0
 40
1
 40
1
 40
1
 40
1
 10
280.180981
 20
334.556025
 30
0.0
 10
277.685835
 20
334.403955
 30
0.0
 10
276.040369
 20
334.621384
 30
0.0
 10
274.181363
 20
335.348233
 30
0.0
  0
SPLINE
  5
17a
100
AcDbEntity
  8
Layer_1
 62
7
100
AcDbSpline
 70
8
 71
3
 72
8
 73
4
 74
0
 40
0
 40
0
 40
0
 40
0
 40
1
 40
1
 40
1
 40
1
 10
274.181363
 20
335.348233
 30
0.0
 10
271.608904
 20
336.354045
 30
0.0
 10
267.696237
 20
339.173988
 30
0.0
 10
265.779418
 20
341.404885
 30
0.0
  0
SPLINE
  5
17b
100
AcDbEntity
  8
Layer_1
 62
7
100
AcDbSpline
 70
8
 71
3
 72
8
 73
4
 74
0
 40
0
 40
0
 40
0
 40
0
 40
1
 40
1
 40
1
 40
1
 10
265.779418
 20
341.404885
 30
0.0
 10
263.684764
 20
343.842813
 30
0.0
 10
263.463826
 20
344.042990
 30
0.0
 10
263.037222
 20
343.894884
 30
0.0
  0
SPLINE
  5
17c
100
AcDbEntity
  8
Layer_1
 62
7
100
AcDbSpline
 70
8
 71
3
 72
8
 73
4
 74
0
 40
0
 40
0
 40
0
 40
0
 40
1
 40
1
 40
1
 40
1
 10
263.037222
 20
343.894884
 30
0.0
 10
262.523803
 20
343.716624
 30
0.0
 10
262.395826
 20
343.477448
 30
0.0
 10
262.408366
 20
342.729099
 30
0.0
  0
SPLINE
  5
17d
100
AcDbEntity
  8
Layer_1
 62
7
100
AcDbSpline
 70
8
 71
3
 72
8
 73
4
 74
0
 40
0
 40
0
 40
0
 40
0
 40
1
 40
1
 40
1
 40
1
 10
262.408366
 20
342.729099
 30
0.0
 10
262.425200
 20
341.724305
 30
0.0
 10
262.923907
 20
340.944923
 30
0.0
 10
264.536741
 20
339.399104
 30
0.0
  0
SPLINE
  5
17e
100
AcDbEntity
  8
Layer_1
 62
7
100
AcDbSpline
 70
8
 71
3
 72
8
 73
4
 74
0
 40
0
 40
0
 40
0
 40
0
 40
1
 40
1
 40
1
 40
1
 10
264.536741
 20
339.399104
 30
0.0
 10
268.279490
 20
335.811844
 30
0.0
 10
271.843010
 20
333.632878
 30
0.0
 10
275.516681
 20
332.684265
 30
0.0
  0
SPLINE
  5
17f
100
AcDbEntity
  8
Layer_1
 62
7
100
AcDbSpline
 70
8
 71
3
 72
8
 73
4
 74
0
 40
0
 40
0
 40
0
 40
0
 40
1
 40
1
 40
1
 40
1
 10
275.516681
 20
332.684265
 30
0.0
 10
278.508839
 20
331.911634
 30
0.0
 10
282.153441
 20
332.231173
 30
0.0
 10
285.680495
 20
333.576599
 30
0.0
  0
SPLINE
  5
180
100
AcDbEntity
  8
Layer_1
 62
7
100
AcDbSpline
 70
8
 71
3
 72
8
 73
4
 74
0
 40
0
 40
0
 40
0
 40
0
 40
1
 40
1
 40
1
 40
1
 10
285.680495
 20
333.576599
 30
0.0
 10
287.855519
 20
334.406285
 30
0.0
 10
293.476602
 20
337.421899
 30
0.0
 10
295.355100
 20
338.766257
 30
0.0
  0
SPLINE
  5
181
100
AcDbEntity
  8
Layer_1
 62
7
100
AcDbSpline
 70
8
 71
3
 72
8
 73
4
 74
0
 40
0
 40
0
 40
0
 40
0
 40
1
 40
1
 40
1
 40
1
 10
295.355100
 20
338.766257
 30
0.0
 10
298.287316
 20
340.864714
 30
0.0
 10
301.176247
 20
343.681603
 30
0.0
 10
301.556924
 20
344.814189
 30
0.0
  0
SPLINE
  5
182
100
AcDbEntity
  8
Layer_1
 62
7
100
AcDbSpline
 70
8
 71
3
 72
8
 73
4
 74
0
 40
0
 40
0
 40
0
 40
0
 40
1
 40
1
 40
1
 40
1
 10
301.556924
 20
344.814189
 30
0.0
 10
301.851867
 20
345.691681
 30
0.0
 10
301.151028
 20
346.376425
 30
0.0
 10
300.273257
 20
346.070197
 30
0.0
  0
LWPOLYLINE
  5
183
100
AcDbEntity
  8
Layer_1
 62
7
100
AcDbPolyline
 90
1
 70
1
 10
276.002264
 20
354.218811
 30
0.0
  0
SPLINE
  5
184
100
AcDbEntity
  8
Layer_1
 62
7
100
AcDbSpline
 70
8
 71
3
 72
8
 73
4
 74
0
 40
0
 40
0
 40
0
 40
0
 40
1
 40
1
 40
1
 40
1
 10
304.313457
 20
329.570137
 30
0.0
 10
304.383259
 20
329.491440
 30
0.0
 10
304.712993
 20
328.602240
 30
0.0
 10
305.046461
 20
327.596582
 30
0.0
  0
SPLINE
  5
185
100
AcDbEntity
  8
Layer_1
 62
7
100
AcDbSpline
 70
8
 71
3
 72
8
 73
4
 74
0
 40
0
 40
0
 40
0
 40
0
 40
1
 40
1
 40
1
 40
1
 10
305.046461
 20
327.596582
 30
0.0
 10
306.951017
 20
321.852961
 30
0.0
 10
312.541166
 20
308.022984
 30
0.0
 10
316.934005
 20
298.188242
 30
0.0
  0
SPLINE
  5
186
100
AcDbEntity
  8
Layer_1
 62
7
100
AcDbSpline
 70
8
 71
3
 72
8
 73
4
 74
0
 40
0
 40
0
 40
0
 40
0
 40
1
 40
1
 40
1
 40
1
 10
316.934005
 20
298.188242
 30
0.0
 10
322.420042
 20
285.906046
 30
0.0
 10
325.527235
 20
278.300109
 30
0.0
 10
327.909237
 20
271.319616
 30
0.0
  0
SPLINE
  5
187
100
AcDbEntity
  8
Layer_1
 62
7
100
AcDbSpline
 70
8
 71
3
 72
8
 73
4
 74
0
 40
0
 40
0
 40
0
 40
0
 40
1
 40
1
 40
1
 40
1
 10
327.909237
 20
271.319616
 30
0.0
 10
328.809502
 20
268.681368
 30
0.0
 10
329.690252
 20
266.025274
 30
0.0
 10
329.864814
 20
265.417229
 30
0.0
  0
LWPOLYLINE
  5
188
100
AcDbEntity
  8
Layer_1
 62
7
100
AcDbPolyline
 90
1
 70
1
 10
300.273257
 20
346.070197
 30
0.0
  0
SPLINE
  5
189
100
AcDbEntity
  8
Layer_1
 62
7
100
AcDbSpline
 70
8
 71
3
 72
8
 73
4
 74
0
 40
0
 40
0
 40
0
 40
0
 40
1
 40
1
 40
1
 40
1
 10
327.808504
 20
261.561487
 30
0.0
 10
320.733471
 20
253.360692
 30
0.0
 10
317.148888
 20
247.769969
 30
0.0
 10
315.780611
 20
242.805108
 30
0.0
  0
SPLINE
  5
18a
100
AcDbEntity
  8
Layer_1
 62
7
100
AcDbSpline
 70
8
 71
3
 72
8
 73
4
 74
0
 40
0
 40
0
 40
0
 40
0
 40
1
 40
1
 40
1
 40
1
 10
315.780611
 20
242.805108
 30
0.0
 10
315.256403
 20
240.903010
 30
0.0
 10
314.792131
 20
237.452486
 30
0.0
 10
314.044855
 20
229.902623
 30
0.0
  0
SPLINE
  5
18b
100
AcDbEntity
  8
Layer_1
 62
7
100
AcDbSpline
 70
8
 71
3
 72
8
 73
4
 74
0
 40
0
 40
0
 40
0
 40
0
 40
1
 40
1
 40
1
 40
1
 10
314.044855
 20
229.902623
 30
0.0
 10
312.886098
 20
218.195463
 30
0.0
 10
312.087563
 20
213.607963
 30
0.0
 10
310.873584
 20
211.672834
 30
0.0
  0
SPLINE
  5
18c
100
AcDbEntity
  8
Layer_1
 62
7
100
AcDbSpline
 70
8
 71
3
 72
8
 73
4
 74
0
 40
0
 40
0
 40
0
 40
0
 40
1
 40
1
 40
1
 40
1
 10
310.873584
 20
211.672834
 30
0.0
 10
310.011779
 20
210.299065
 30
0.0
 10
307.683560
 20
208.886501
 30
0.0
 10
302.668911
 20
206.690587
 30
0.0
  0
SPLINE
  5
18d
100
AcDbEntity
  8
Layer_1
 62
7
100
AcDbSpline
 70
8
 71
3
 72
8
 73
4
 74
0
 40
0
 40
0
 40
0
 40
0
 40
1
 40
1
 40
1
 40
1
 10
302.668911
 20
206.690587
 30
0.0
 10
297.623425
 20
204.481157
 30
0.0
 10
295.586377
 20
203.903980
 30
0.0
 10
291.437718
 20
203.510601
 30
0.0
  0
SPLINE
  5
18e
100
AcDbEntity
  8
Layer_1
 62
7
100
AcDbSpline
 70
8
 71
3
 72
8
 73
4
 74
0
 40
0
 40
0
 40
0
 40
0
 40
1
 40
1
 40
1
 40
1
 10
291.437718
 20
203.510601
 30
0.0
 10
287.576193
 20
203.144447
 30
0.0
 10
282.374546
 20
203.147817
 30
0.0
 10
280.597432
 20
203.518185
 30
0.0
  0
SPLINE
  5
18f
100
AcDbEntity
  8
Layer_1
 62
7
100
AcDbSpline
 70
8
 71
3
 72
8
 73
4
 74
0
 40
0
 40
0
 40
0
 40
0
 40
1
 40
1
 40
1
 40
1
 10
280.597432
 20
203.518185
 30
0.0
 10
278.950682
 20
203.861388
 30
0.0
 10
276.280868
 20
204.775785
 30
0.0
 10
274.428495
 20
205.629886
 30
0.0
  0
SPLINE
  5
190
100
AcDbEntity
  8
Layer_1
 62
7
100
AcDbSpline
 70
8
 71
3
 72
8
 73
4
 74
0
 40
0
 40
0
 40
0
 40
0
 40
1
 40
1
 40
1
 40
1
 10
274.428495
 20
205.629886
 30
0.0
 10
271.673142
 20
206.900358
 30
0.0
 10
268.379432
 20
209.177530
 30
0.0
 10
267.218688
 20
210.613742
 30
0.0
  0
LWPOLYLINE
  5
191
100
AcDbEntity
  8
Layer_1
 62
7
100
AcDbPolyline
 90
3
 70
0
 10
329.864814
 20
265.417229
 30
0.0
 10
330.181013
 20
264.312529
 30
0.0
 10
327.808504
 20
261.561487
 30
0.0
  0
SPLINE
  5
192
100
AcDbEntity
  8
Layer_1
 62
7
100
AcDbSpline
 70
8
 71
3
 72
8
 73
4
 74
0
 40
0
 40
0
 40
0
 40
0
 40
1
 40
1
 40
1
 40
1
 10
268.043676
 20
212.680917
 30
0.0
 10
270.219652
 20
215.017848
 30
0.0
 10
271.039000
 20
217.211213
 30
0.0
 10
270.955184
 20
220.475287
 30
0.0
  0
SPLINE
  5
193
100
AcDbEntity
  8
Layer_1
 62
7
100
AcDbSpline
 70
8
 71
3
 72
8
 73
4
 74
0
 40
0
 40
0
 40
0
 40
0
 40
1
 40
1
 40
1
 40
1
 10
270.955184
 20
220.475287
 30
0.0
 10
270.823233
 20
225.614330
 30
0.0
 10
267.609170
 20
231.421513
 30
0.0
 10
261.563754
 20
237.442442
 30
0.0
  0
SPLINE
  5
194
100
AcDbEntity
  8
Layer_1
 62
7
100
AcDbSpline
 70
8
 71
3
 72
8
 73
4
 74
0
 40
0
 40
0
 40
0
 40
0
 40
1
 40
1
 40
1
 40
1
 10
261.563754
 20
237.442442
 30
0.0
 10
259.074783
 20
239.921324
 30
0.0
 10
257.514024
 20
241.228442
 30
0.0
 10
249.733570
 20
247.342533
 30
0.0
  0
LWPOLYLINE
  5
195
100
AcDbEntity
  8
Layer_1
 62
7
100
AcDbPolyline
 90
3
 70
0
 10
267.218688
 20
210.613742
 30
0.0
 10
266.707287
 20
211.244671
 30
0.0
 10
268.043676
 20
212.680917
 30
0.0
  0
SPLINE
  5
196
100
AcDbEntity
  8
Layer_1
 62
7
100
AcDbSpline
 70
8
 71
3
 72
8
 73
4
 74
0
 40
0
 40
0
 40
0
 40
0
 40
1
 40
1
 40
1
 40
1
 10
245.072492
 20
252.110587
 30
0.0
 10
246.059048
 20
253.613476
 30
0.0
 10
246.728465
 20
256.299833
 30
0.0
 10
247.454699
 20
261.666490
 30
0.0
  0
SPLINE
  5
197
100
AcDbEntity
  8
Layer_1
 62
7
100
AcDbSpline
 70
8
 71
3
 72
8
 73
4
 74
0
 40
0
 40
0
 40
0
 40
0
 40
1
 40
1
 40
1
 40
1
 10
247.454699
 20
261.666490
 30
0.0
 10
248.637540
 20
270.407359
 30
0.0
 10
249.841619
 20
274.397365
 30
0.0
 10
257.023093
 20
293.394197
 30
0.0
  0
SPLINE
  5
198
100
AcDbEntity
  8
Layer_1
 62
7
100
AcDbSpline
 70
8
 71
3
 72
8
 73
4
 74
0
 40
0
 40
0
 40
0
 40
0
 40
1
 40
1
 40
1
 40
1
 10
257.023093
 20
293.394197
 30
0.0
 10
262.731042
 20
308.493171
 30
0.0
 10
264.636791
 20
314.363209
 30
0.0
 10
266.292103
 20
321.939961
 30
0.0
  0
LWPOLYLINE
  5
199
100
AcDbEntity
  8
Layer_1
 62
7
100
AcDbPolyline
 90
3
 70
0
 10
249.733570
 20
247.342533
 30
0.0
 10
244.593808
 20
251.381020
 30
0.0
 10
245.072492
 20
252.110587
 30
0.0
  0
SPLINE
  5
19a
100
AcDbEntity
  8
Layer_1
 62
7
100
AcDbSpline
 70
8
 71
3
 72
8
 73
4
 74
0
 40
0
 40
0
 40
0
 40
0
 40
1
 40
1
 40
1
 40
1
 10
268.696491
 20
324.124941
 30
0.0
 10
273.379553
 20
320.858139
 30
0.0
 10
277.828406
 20
319.393965
 30
0.0
 10
282.130317
 20
319.704302
 30
0.0
  0
SPLINE
  5
19b
100
AcDbEntity
  8
Layer_1
 62
7
100
AcDbSpline
 70
8
 71
3
 72
8
 73
4
 74
0
 40
0
 40
0
 40
0
 40
0
 40
1
 40
1
 40
1
 40
1
 10
282.130317
 20
319.704302
 30
0.0
 10
285.461040
 20
319.944572
 30
0.0
 10
287.649598
 20
320.863756
 30
0.0
 10
297.685790
 20
326.233741
 30
0.0
  0
SPLINE
  5
19c
100
AcDbEntity
  8
Layer_1
 62
7
100
AcDbSpline
 70
8
 71
3
 72
8
 73
4
 74
0
 40
0
 40
0
 40
0
 40
0
 40
1
 40
1
 40
1
 40
1
 10
297.685790
 20
326.233741
 30
0.0
 10
301.261606
 20
328.147024
 30
0.0
 10
304.243653
 20
329.648945
 30
0.0
 10
304.313457
 20
329.570137
 30
0.0
  0
LWPOLYLINE
  5
19d
100
AcDbEntity
  8
Layer_1
 62
7
100
AcDbPolyline
 90
3
 70
0
 10
266.292103
 20
321.939961
 30
0.0
 10
267.024235
 20
325.290802
 30
0.0
 10
268.696491
 20
324.124941
 30
0.0
  0
SPLINE
  5
19e
100
AcDbEntity
  8
Layer_1
 62
7
100
AcDbSpline
 70
8
 71
3
 72
8
 73
4
 74
0
 40
0
 40
0
 40
0
 40
0
 40
1
 40
1
 40
1
 40
1
 10
326.554140
 20
306.051281
 30
0.0
 10
326.973918
 20
306.387829
 30
0.0
 10
327.409657
 20
306.043911
 30
0.0
 10
329.526256
 20
303.712125
 30
0.0
  0
SPLINE
  5
19f
100
AcDbEntity
  8
Layer_1
 62
7
100
AcDbSpline
 70
8
 71
3
 72
8
 73
4
 74
0
 40
0
 40
0
 40
0
 40
0
 40
1
 40
1
 40
1
 40
1
 10
329.526256
 20
303.712125
 30
0.0
 10
332.136063
 20
300.836959
 30
0.0
 10
334.287370
 20
298.005497
 30
0.0
 10
336.024447
 20
295.160664
 30
0.0
  0
SPLINE
  5
1a0
100
AcDbEntity
  8
Layer_1
 62
7
100
AcDbSpline
 70
8
 71
3
 72
8
 73
4
 74
0
 40
0
 40
0
 40
0
 40
0
 40
1
 40
1
 40
1
 40
1
 10
336.024447
 20
295.160664
 30
0.0
 10
336.861214
 20
293.790281
 30
0.0
 10
336.927186
 20
293.604086
 30
0.0
 10
336.571434
 20
293.599064
 30
0.0
  0
SPLINE
  5
1a1
100
AcDbEntity
  8
Layer_1
 62
7
100
AcDbSpline
 70
8
 71
3
 72
8
 73
4
 74
0
 40
0
 40
0
 40
0
 40
0
 40
1
 40
1
 40
1
 40
1
 10
336.571434
 20
293.599064
 30
0.0
 10
336.443180
 20
293.597254
 30
0.0
 10
336.199841
 20
293.426896
 30
0.0
 10
336.031514
 20
293.222447
 30
0.0
  0
SPLINE
  5
1a2
100
AcDbEntity
  8
Layer_1
 62
7
100
AcDbSpline
 70
8
 71
3
 72
8
 73
4
 74
0
 40
0
 40
0
 40
0
 40
0
 40
1
 40
1
 40
1
 40
1
 10
336.031514
 20
293.222447
 30
0.0
 10
335.863166
 20
293.017997
 30
0.0
 10
335.679687
 20
292.850474
 30
0.0
 10
335.622984
 20
292.849851
 30
0.0
  0
SPLINE
  5
1a3
100
AcDbEntity
  8
Layer_1
 62
7
100
AcDbSpline
 70
8
 71
3
 72
8
 73
4
 74
0
 40
0
 40
0
 40
0
 40
0
 40
1
 40
1
 40
1
 40
1
 10
335.622984
 20
292.849851
 30
0.0
 10
335.566281
 20
292.849295
 30
0.0
 10
335.276775
 20
293.321313
 30
0.0
 10
334.979259
 20
293.897828
 30
0.0
  0
SPLINE
  5
1a4
100
AcDbEntity
  8
Layer_1
 62
7
100
AcDbSpline
 70
8
 71
3
 72
8
 73
4
 74
0
 40
0
 40
0
 40
0
 40
0
 40
1
 40
1
 40
1
 40
1
 10
334.979259
 20
293.897828
 30
0.0
 10
334.332183
 20
295.151754
 30
0.0
 10
332.264826
 20
298.369210
 30
0.0
 10
331.197051
 20
299.785275
 30
0.0
  0
SPLINE
  5
1a5
100
AcDbEntity
  8
Layer_1
 62
7
100
AcDbSpline
 70
8
 71
3
 72
8
 73
4
 74
0
 40
0
 40
0
 40
0
 40
0
 40
1
 40
1
 40
1
 40
1
 10
331.197051
 20
299.785275
 30
0.0
 10
330.775770
 20
300.343973
 30
0.0
 10
329.698377
 20
301.608305
 30
0.0
 10
328.802692
 20
302.597091
 30
0.0
  0
SPLINE
  5
1a6
100
AcDbEntity
  8
Layer_1
 62
7
100
AcDbSpline
 70
8
 71
3
 72
8
 73
4
 74
0
 40
0
 40
0
 40
0
 40
0
 40
1
 40
1
 40
1
 40
1
 10
328.802692
 20
302.597091
 30
0.0
 10
327.906997
 20
303.585878
 30
0.0
 10
326.966093
 20
304.711842
 30
0.0
 10
326.709748
 20
305.098423
 30
0.0
  0
SPLINE
  5
1a7
100
AcDbEntity
  8
Layer_1
 62
7
100
AcDbSpline
 70
8
 71
3
 72
8
 73
4
 74
0
 40
0
 40
0
 40
0
 40
0
 40
1
 40
1
 40
1
 40
1
 10
326.709748
 20
305.098423
 30
0.0
 10
326.265006
 20
305.769145
 30
0.0
 10
326.257572
 20
305.813493
 30
0.0
 10
326.554140
 20
306.051281
 30
0.0
  0
LWPOLYLINE
  5
1a8
100
AcDbEntity
  8
Layer_1
 62
7
100
AcDbPolyline
 90
1
 70
1
 10
304.313457
 20
329.570137
 30
0.0
  0
SPLINE
  5
1a9
100
AcDbEntity
  8
Layer_1
 62
7
100
AcDbSpline
 70
8
 71
3
 72
8
 73
4
 74
0
 40
0
 40
0
 40
0
 40
0
 40
1
 40
1
 40
1
 40
1
 10
246.317145
 20
301.002836
 30
0.0
 10
246.599394
 20
300.714308
 30
0.0
 10
246.062354
 20
299.313617
 30
0.0
 10
243.267664
 20
293.043720
 30
0.0
  0
SPLINE
  5
1aa
100
AcDbEntity
  8
Layer_1
 62
7
100
AcDbSpline
 70
8
 71
3
 72
8
 73
4
 74
0
 40
0
 40
0
 40
0
 40
0
 40
1
 40
1
 40
1
 40
1
 10
243.267664
 20
293.043720
 30
0.0
 10
241.787885
 20
289.723832
 30
0.0
 10
240.399755
 20
286.489222
 30
0.0
 10
240.181996
 20
285.854656
 30
0.0
  0
SPLINE
  5
1ab
100
AcDbEntity
  8
Layer_1
 62
7
100
AcDbSpline
 70
8
 71
3
 72
8
 73
4
 74
0
 40
0
 40
0
 40
0
 40
0
 40
1
 40
1
 40
1
 40
1
 10
240.181996
 20
285.854656
 30
0.0
 10
239.964231
 20
285.220101
 30
0.0
 10
239.746381
 20
284.706625
 30
0.0
 10
239.698077
 20
284.712611
 30
0.0
  0
SPLINE
  5
1ac
100
AcDbEntity
  8
Layer_1
 62
7
100
AcDbSpline
 70
8
 71
3
 72
8
 73
4
 74
0
 40
0
 40
0
 40
0
 40
0
 40
1
 40
1
 40
1
 40
1
 10
239.698077
 20
284.712611
 30
0.0
 10
239.391993
 20
284.753299
 30
0.0
 10
238.476353
 20
285.359773
 30
0.0
 10
238.469566
 20
285.526599
 30
0.0
  0
SPLINE
  5
1ad
100
AcDbEntity
  8
Layer_1
 62
7
100
AcDbSpline
 70
8
 71
3
 72
8
 73
4
 74
0
 40
0
 40
0
 40
0
 40
0
 40
1
 40
1
 40
1
 40
1
 10
238.469566
 20
285.526599
 30
0.0
 10
238.455090
 20
285.883598
 30
0.0
 10
241.203922
 20
291.886484
 30
0.0
 10
242.735546
 20
294.844299
 30
0.0
  0
SPLINE
  5
1ae
100
AcDbEntity
  8
Layer_1
 62
7
100
AcDbSpline
 70
8
 71
3
 72
8
 73
4
 74
0
 40
0
 40
0
 40
0
 40
0
 40
1
 40
1
 40
1
 40
1
 10
242.735546
 20
294.844299
 30
0.0
 10
245.088914
 20
299.389048
 30
0.0
 10
246.134897
 20
301.189145
 30
0.0
 10
246.317145
 20
301.002836
 30
0.0
  0
LWPOLYLINE
  5
1af
100
AcDbEntity
  8
Layer_1
 62
7
100
AcDbPolyline
 90
1
 70
1
 10
326.554140
 20
306.051281
 30
0.0
  0
LWPOLYLINE
  5
1b0
100
AcDbEntity
  8
Layer_1
 62
7
100
AcDbPolyline
 90
1
 70
1
 10
246.317145
 20
301.002836
 30
0.0
  0
SPLINE
  5
1b1
100
AcDbEntity
  8
Layer_1
 62
7
100
AcDbSpline
 70
8
 71
3
 72
8
 73
4
 74
0
 40
0
 40
0
 40
0
 40
0
 40
1
 40
1
 40
1
 40
1
 10
341.599341
 20
263.631548
 30
0.0
 10
341.617457
 20
262.773756
 30
0.0
 10
341.450013
 20
262.644390
 30
0.0
 10
340.715286
 20
262.946190
 30
0.0
  0
SPLINE
  5
1b2
100
AcDbEntity
  8
Layer_1
 62
7
100
AcDbSpline
 70
8
 71
3
 72
8
 73
4
 74
0
 40
0
 40
0
 40
0
 40
0
 40
1
 40
1
 40
1
 40
1
 10
340.715286
 20
262.946190
 30
0.0
 10
340.463803
 20
263.049439
 30
0.0
 10
340.506445
 20
263.165664
 30
0.0
 10
341.002926
 20
263.759878
 30
0.0
  0
LWPOLYLINE
  5
1b3
100
AcDbEntity
  8
Layer_1
 62
7
100
AcDbPolyline
 90
2
 70
0
 10
341.581973
 20
264.453944
 30
0.0
 10
341.599341
 20
263.631548
 30
0.0
  0
LWPOLYLINE
  5
1b4
100
AcDbEntity
  8
Layer_1
 62
7
100
AcDbPolyline
 90
2
 70
0
 10
341.002926
 20
263.759878
 30
0.0
 10
341.581973
 20
264.453944
 30
0.0
  0
SPLINE
  5
1b5
100
AcDbEntity
  8
Layer_1
 62
7
100
AcDbSpline
 70
8
 71
3
 72
8
 73
4
 74
0
 40
0
 40
0
 40
0
 40
0
 40
1
 40
1
 40
1
 40
1
 10
228.929105
 20
244.834846
 30
0.0
 10
230.972578
 20
244.796237
 30
0.0
 10
231.192775
 20
244.756003
 30
0.0
 10
232.261270
 20
244.219868
 30
0.0
  0
SPLINE
  5
1b6
100
AcDbEntity
  8
Layer_1
 62
7
100
AcDbSpline
 70
8
 71
3
 72
8
 73
4
 74
0
 40
0
 40
0
 40
0
 40
0
 40
1
 40
1
 40
1
 40
1
 10
232.261270
 20
244.219868
 30
0.0
 10
233.761270
 20
243.467135
 30
0.0
 10
235.625752
 20
241.478803
 30
0.0
 10
237.426127
 20
238.710078
 30
0.0
  0
SPLINE
  5
1b7
100
AcDbEntity
  8
Layer_1
 62
7
100
AcDbSpline
 70
8
 71
3
 72
8
 73
4
 74
0
 40
0
 40
0
 40
0
 40
0
 40
1
 40
1
 40
1
 40
1
 10
237.426127
 20
238.710078
 30
0.0
 10
238.173540
 20
237.560655
 30
0.0
 10
240.193374
 20
234.124474
 30
0.0
 10
241.916658
 20
231.074461
 30
0.0
  0
SPLINE
  5
1b8
100
AcDbEntity
  8
Layer_1
 62
7
100
AcDbSpline
 70
8
 71
3
 72
8
 73
4
 74
0
 40
0
 40
0
 40
0
 40
0
 40
1
 40
1
 40
1
 40
1
 10
241.916658
 20
231.074461
 30
0.0
 10
246.907778
 20
222.240761
 30
0.0
 10
249.943069
 20
217.486774
 30
0.0
 10
254.926424
 20
210.696336
 30
0.0
  0
SPLINE
  5
1b9
100
AcDbEntity
  8
Layer_1
 62
7
100
AcDbSpline
 70
8
 71
3
 72
8
 73
4
 74
0
 40
0
 40
0
 40
0
 40
0
 40
1
 40
1
 40
1
 40
1
 10
254.926424
 20
210.696336
 30
0.0
 10
261.670290
 20
201.506994
 30
0.0
 10
264.489108
 20
196.473085
 30
0.0
 10
264.568288
 20
193.474420
 30
0.0
  0
SPLINE
  5
1ba
100
AcDbEntity
  8
Layer_1
 62
7
100
AcDbSpline
 70
8
 71
3
 72
8
 73
4
 74
0
 40
0
 40
0
 40
0
 40
0
 40
1
 40
1
 40
1
 40
1
 10
264.568288
 20
193.474420
 30
0.0
 10
264.603391
 20
192.145520
 30
0.0
 10
263.754717
 20
189.154327
 30
0.0
 10
262.890117
 20
187.561975
 30
0.0
  0
SPLINE
  5
1bb
100
AcDbEntity
  8
Layer_1
 62
7
100
AcDbSpline
 70
8
 71
3
 72
8
 73
4
 74
0
 40
0
 40
0
 40
0
 40
0
 40
1
 40
1
 40
1
 40
1
 10
262.890117
 20
187.561975
 30
0.0
 10
261.627242
 20
185.236112
 30
0.0
 10
259.013384
 20
183.282332
 30
0.0
 10
255.992050
 20
182.407170
 30
0.0
  0
SPLINE
  5
1bc
100
AcDbEntity
  8
Layer_1
 62
7
100
AcDbSpline
 70
8
 71
3
 72
8
 73
4
 74
0
 40
0
 40
0
 40
0
 40
0
 40
1
 40
1
 40
1
 40
1
 10
255.992050
 20
182.407170
 30
0.0
 10
254.386693
 20
181.942152
 30
0.0
 10
250.330380
 20
181.704852
 30
0.0
 10
248.386886
 20
181.961193
 30
0.0
  0
SPLINE
  5
1bd
100
AcDbEntity
  8
Layer_1
 62
7
100
AcDbSpline
 70
8
 71
3
 72
8
 73
4
 74
0
 40
0
 40
0
 40
0
 40
0
 40
1
 40
1
 40
1
 40
1
 10
248.386886
 20
181.961193
 30
0.0
 10
245.920498
 20
182.286512
 30
0.0
 10
241.339793
 20
183.738122
 30
0.0
 10
236.948199
 20
185.587358
 30
0.0
  0
SPLINE
  5
1be
100
AcDbEntity
  8
Layer_1
 62
7
100
AcDbSpline
 70
8
 71
3
 72
8
 73
4
 74
0
 40
0
 40
0
 40
0
 40
0
 40
1
 40
1
 40
1
 40
1
 10
236.948199
 20
185.587358
 30
0.0
 10
229.301369
 20
188.807330
 30
0.0
 10
227.320765
 20
189.315753
 30
0.0
 10
214.995628
 20
191.218287
 30
0.0
  0
SPLINE
  5
1bf
100
AcDbEntity
  8
Layer_1
 62
7
100
AcDbSpline
 70
8
 71
3
 72
8
 73
4
 74
0
 40
0
 40
0
 40
0
 40
0
 40
1
 40
1
 40
1
 40
1
 10
214.995628
 20
191.218287
 30
0.0
 10
207.663103
 20
192.350137
 30
0.0
 10
206.568048
 20
192.572225
 30
0.0
 10
205.209312
 20
193.205117
 30
0.0
  0
SPLINE
  5
1c0
100
AcDbEntity
  8
Layer_1
 62
7
100
AcDbSpline
 70
8
 71
3
 72
8
 73
4
 74
0
 40
0
 40
0
 40
0
 40
0
 40
1
 40
1
 40
1
 40
1
 10
205.209312
 20
193.205117
 30
0.0
 10
203.342987
 20
194.074457
 30
0.0
 10
202.920215
 20
194.806068
 30
0.0
 10
202.868453
 20
197.257078
 30
0.0
  0
SPLINE
  5
1c1
100
AcDbEntity
  8
Layer_1
 62
7
100
AcDbSpline
 70
8
 71
3
 72
8
 73
4
 74
0
 40
0
 40
0
 40
0
 40
0
 40
1
 40
1
 40
1
 40
1
 10
202.868453
 20
197.257078
 30
0.0
 10
202.827073
 20
199.216448
 30
0.0
 10
203.120983
 20
201.397605
 30
0.0
 10
203.812074
 20
204.272651
 30
0.0
  0
SPLINE
  5
1c2
100
AcDbEntity
  8
Layer_1
 62
7
100
AcDbSpline
 70
8
 71
3
 72
8
 73
4
 74
0
 40
0
 40
0
 40
0
 40
0
 40
1
 40
1
 40
1
 40
1
 10
203.812074
 20
204.272651
 30
0.0
 10
204.309559
 20
206.342371
 30
0.0
 10
204.321092
 20
206.499365
 30
0.0
 10
204.239409
 20
209.980767
 30
0.0
  0
SPLINE
  5
1c3
100
AcDbEntity
  8
Layer_1
 62
7
100
AcDbSpline
 70
8
 71
3
 72
8
 73
4
 74
0
 40
0
 40
0
 40
0
 40
0
 40
1
 40
1
 40
1
 40
1
 10
204.239409
 20
209.980767
 30
0.0
 10
204.183401
 20
212.367137
 30
0.0
 10
204.030646
 20
214.419698
 30
0.0
 10
203.780813
 20
216.130021
 30
0.0
  0
SPLINE
  5
1c4
100
AcDbEntity
  8
Layer_1
 62
7
100
AcDbSpline
 70
8
 71
3
 72
8
 73
4
 74
0
 40
0
 40
0
 40
0
 40
0
 40
1
 40
1
 40
1
 40
1
 10
203.780813
 20
216.130021
 30
0.0
 10
203.320252
 20
219.282967
 30
0.0
 10
203.182715
 20
223.129520
 30
0.0
 10
203.487904
 20
224.339322
 30
0.0
  0
SPLINE
  5
1c5
100
AcDbEntity
  8
Layer_1
 62
7
100
AcDbSpline
 70
8
 71
3
 72
8
 73
4
 74
0
 40
0
 40
0
 40
0
 40
0
 40
1
 40
1
 40
1
 40
1
 10
203.487904
 20
224.339322
 30
0.0
 10
203.959953
 20
226.210544
 30
0.0
 10
205.224756
 20
227.237288
 30
0.0
 10
209.663647
 20
229.358038
 30
0.0
  0
SPLINE
  5
1c6
100
AcDbEntity
  8
Layer_1
 62
7
100
AcDbSpline
 70
8
 71
3
 72
8
 73
4
 74
0
 40
0
 40
0
 40
0
 40
0
 40
1
 40
1
 40
1
 40
1
 10
209.663647
 20
229.358038
 30
0.0
 10
215.950374
 20
232.361623
 30
0.0
 10
216.937739
 20
233.199136
 30
0.0
 10
222.636253
 20
240.361462
 30
0.0
  0
SPLINE
  5
1c7
100
AcDbEntity
  8
Layer_1
 62
7
100
AcDbSpline
 70
8
 71
3
 72
8
 73
4
 74
0
 40
0
 40
0
 40
0
 40
0
 40
1
 40
1
 40
1
 40
1
 10
222.636253
 20
240.361462
 30
0.0
 10
224.055659
 20
242.145483
 30
0.0
 10
225.559730
 20
243.892169
 30
0.0
 10
225.979073
 20
244.241868
 30
0.0
  0
LWPOLYLINE
  5
1c8
100
AcDbEntity
  8
Layer_1
 62
7
100
AcDbPolyline
 90
2
 70
0
 10
226.740650
 20
244.877743
 30
0.0
 10
228.929105
 20
244.834846
 30
0.0
  0
LWPOLYLINE
  5
1c9
100
AcDbEntity
  8
Layer_1
 62
7
100
AcDbPolyline
 90
2
 70
0
 10
225.979073
 20
244.241868
 30
0.0
 10
226.740650
 20
244.877743
 30
0.0
  0
SPLINE
  5
1ca
100
AcDbEntity
  8
Layer_1
 62
7
100
AcDbSpline
 70
8
 71
3
 72
8
 73
4
 74
0
 40
0
 40
0
 40
0
 40
0
 40
1
 40
1
 40
1
 40
1
 10
327.535715
 20
243.913090
 30
0.0
 10
328.552613
 20
241.197062
 30
0.0
 10
330.732151
 20
237.752855
 30
0.0
 10
332.389562
 20
236.243539
 30
0.0
  0
SPLINE
  5
1cb
100
AcDbEntity
  8
Layer_1
 62
7
100
AcDbSpline
 70
8
 71
3
 72
8
 73
4
 74
0
 40
0
 40
0
 40
0
 40
0
 40
1
 40
1
 40
1
 40
1
 10
332.389562
 20
236.243539
 30
0.0
 10
333.383652
 20
235.338280
 30
0.0
 10
335.278526
 20
234.382369
 30
0.0
 10
336.638579
 20
234.100388
 30
0.0
  0
SPLINE
  5
1cc
100
AcDbEntity
  8
Layer_1
 62
7
100
AcDbSpline
 70
8
 71
3
 72
8
 73
4
 74
0
 40
0
 40
0
 40
0
 40
0
 40
1
 40
1
 40
1
 40
1
 10
336.638579
 20
234.100388
 30
0.0
 10
337.953439
 20
233.827793
 30
0.0
 10
341.120250
 20
233.910552
 30
0.0
 10
342.570369
 20
234.255810
 30
0.0
  0
SPLINE
  5
1cd
100
AcDbEntity
  8
Layer_1
 62
7
100
AcDbSpline
 70
8
 71
3
 72
8
 73
4
 74
0
 40
0
 40
0
 40
0
 40
0
 40
1
 40
1
 40
1
 40
1
 10
342.570369
 20
234.255810
 30
0.0
 10
346.098216
 20
235.095615
 30
0.0
 10
349.138948
 20
236.725967
 30
0.0
 10
352.308011
 20
239.478920
 30
0.0
  0
SPLINE
  5
1ce
100
AcDbEntity
  8
Layer_1
 62
7
100
AcDbSpline
 70
8
 71
3
 72
8
 73
4
 74
0
 40
0
 40
0
 40
0
 40
0
 40
1
 40
1
 40
1
 40
1
 10
352.308011
 20
239.478920
 30
0.0
 10
353.991589
 20
240.941428
 30
0.0
 10
354.813783
 20
241.196216
 30
0.0
 10
357.666070
 20
241.141242
 30
0.0
  0
SPLINE
  5
1cf
100
AcDbEntity
  8
Layer_1
 62
7
100
AcDbSpline
 70
8
 71
3
 72
8
 73
4
 74
0
 40
0
 40
0
 40
0
 40
0
 40
1
 40
1
 40
1
 40
1
 10
357.666070
 20
241.141242
 30
0.0
 10
359.518325
 20
241.105490
 30
0.0
 10
359.981597
 20
241.035871
 30
0.0
 10
360.700123
 20
240.680509
 30
0.0
  0
SPLINE
  5
1d0
100
AcDbEntity
  8
Layer_1
 62
7
100
AcDbSpline
 70
8
 71
3
 72
8
 73
4
 74
0
 40
0
 40
0
 40
0
 40
0
 40
1
 40
1
 40
1
 40
1
 10
360.700123
 20
240.680509
 30
0.0
 10
362.140579
 20
239.968099
 30
0.0
 10
363.076738
 20
238.333156
 30
0.0
 10
364.433920
 20
234.160742
 30
0.0
  0
SPLINE
  5
1d1
100
AcDbEntity
  8
Layer_1
 62
7
100
AcDbSpline
 70
8
 71
3
 72
8
 73
4
 74
0
 40
0
 40
0
 40
0
 40
0
 40
1
 40
1
 40
1
 40
1
 10
364.433920
 20
234.160742
 30
0.0
 10
367.674300
 20
224.198786
 30
0.0
 10
367.992277
 20
223.500625
 30
0.0
 10
371.544906
 20
218.478920
 30
0.0
  0
SPLINE
  5
1d2
100
AcDbEntity
  8
Layer_1
 62
7
100
AcDbSpline
 70
8
 71
3
 72
8
 73
4
 74
0
 40
0
 40
0
 40
0
 40
0
 40
1
 40
1
 40
1
 40
1
 10
371.544906
 20
218.478920
 30
0.0
 10
375.327435
 20
213.132219
 30
0.0
 10
375.705382
 20
211.695536
 30
0.0
 10
373.838211
 20
209.792127
 30
0.0
  0
SPLINE
  5
1d3
100
AcDbEntity
  8
Layer_1
 62
7
100
AcDbSpline
 70
8
 71
3
 72
8
 73
4
 74
0
 40
0
 40
0
 40
0
 40
0
 40
1
 40
1
 40
1
 40
1
 10
373.838211
 20
209.792127
 30
0.0
 10
372.436711
 20
208.363407
 30
0.0
 10
371.043803
 20
207.422794
 30
0.0
 10
365.649109
 20
204.260947
 30
0.0
  0
SPLINE
  5
1d4
100
AcDbEntity
  8
Layer_1
 62
7
100
AcDbSpline
 70
8
 71
3
 72
8
 73
4
 74
0
 40
0
 40
0
 40
0
 40
0
 40
1
 40
1
 40
1
 40
1
 10
365.649109
 20
204.260947
 30
0.0
 10
357.424605
 20
199.440530
 30
0.0
 10
355.301285
 20
197.834798
 30
0.0
 10
349.698535
 20
192.195325
 30
0.0
  0
SPLINE
  5
1d5
100
AcDbEntity
  8
Layer_1
 62
7
100
AcDbSpline
 70
8
 71
3
 72
8
 73
4
 74
0
 40
0
 40
0
 40
0
 40
0
 40
1
 40
1
 40
1
 40
1
 10
349.698535
 20
192.195325
 30
0.0
 10
348.250805
 20
190.738080
 30
0.0
 10
346.223794
 20
188.774670
 30
0.0
 10
345.194442
 20
187.831844
 30
0.0
  0
SPLINE
  5
1d6
100
AcDbEntity
  8
Layer_1
 62
7
100
AcDbSpline
 70
8
 71
3
 72
8
 73
4
 74
0
 40
0
 40
0
 40
0
 40
0
 40
1
 40
1
 40
1
 40
1
 10
345.194442
 20
187.831844
 30
0.0
 10
340.044628
 20
183.114968
 30
0.0
 10
338.047658
 20
181.891028
 30
0.0
 10
333.959813
 20
180.946643
 30
0.0
  0
SPLINE
  5
1d7
100
AcDbEntity
  8
Layer_1
 62
7
100
AcDbSpline
 70
8
 71
3
 72
8
 73
4
 74
0
 40
0
 40
0
 40
0
 40
0
 40
1
 40
1
 40
1
 40
1
 10
333.959813
 20
180.946643
 30
0.0
 10
331.916495
 20
180.474575
 30
0.0
 10
328.833030
 20
180.272147
 30
0.0
 10
327.227195
 20
180.504305
 30
0.0
  0
SPLINE
  5
1d8
100
AcDbEntity
  8
Layer_1
 62
7
100
AcDbSpline
 70
8
 71
3
 72
8
 73
4
 74
0
 40
0
 40
0
 40
0
 40
0
 40
1
 40
1
 40
1
 40
1
 10
327.227195
 20
180.504305
 30
0.0
 10
325.646346
 20
180.732859
 30
0.0
 10
324.485389
 20
181.363498
 30
0.0
 10
322.948391
 20
182.831527
 30
0.0
  0
SPLINE
  5
1d9
100
AcDbEntity
  8
Layer_1
 62
7
100
AcDbSpline
 70
8
 71
3
 72
8
 73
4
 74
0
 40
0
 40
0
 40
0
 40
0
 40
1
 40
1
 40
1
 40
1
 10
322.948391
 20
182.831527
 30
0.0
 10
320.342361
 20
185.320625
 30
0.0
 10
318.670797
 20
188.196612
 30
0.0
 10
318.282256
 20
190.857532
 30
0.0
  0
SPLINE
  5
1da
100
AcDbEntity
  8
Layer_1
 62
7
100
AcDbSpline
 70
8
 71
3
 72
8
 73
4
 74
0
 40
0
 40
0
 40
0
 40
0
 40
1
 40
1
 40
1
 40
1
 10
318.282256
 20
190.857532
 30
0.0
 10
317.841983
 20
193.872692
 30
0.0
 10
318.452330
 20
198.251917
 30
0.0
 10
320.668629
 20
207.951884
 30
0.0
  0
SPLINE
  5
1db
100
AcDbEntity
  8
Layer_1
 62
7
100
AcDbSpline
 70
8
 71
3
 72
8
 73
4
 74
0
 40
0
 40
0
 40
0
 40
0
 40
1
 40
1
 40
1
 40
1
 10
320.668629
 20
207.951884
 30
0.0
 10
322.416492
 20
215.601701
 30
0.0
 10
323.282166
 20
221.653283
 30
0.0
 10
323.842146
 20
230.132142
 30
0.0
  0
SPLINE
  5
1dc
100
AcDbEntity
  8
Layer_1
 62
7
100
AcDbSpline
 70
8
 71
3
 72
8
 73
4
 74
0
 40
0
 40
0
 40
0
 40
0
 40
1
 40
1
 40
1
 40
1
 10
323.842146
 20
230.132142
 30
0.0
 10
324.373978
 20
238.184675
 30
0.0
 10
325.142882
 20
241.907042
 30
0.0
 10
326.722954
 20
244.097010
 30
0.0
  0
LWPOLYLINE
  5
1dd
100
AcDbEntity
  8
Layer_1
 62
7
100
AcDbPolyline
 90
2
 70
0
 10
327.212651
 20
244.776757
 30
0.0
 10
327.535715
 20
243.913090
 30
0.0
  0
LWPOLYLINE
  5
1de
100
AcDbEntity
  8
Layer_1
 62
7
100
AcDbPolyline
 90
2
 70
0
 10
326.722954
 20
244.097010
 30
0.0
 10
327.212651
 20
244.776757
 30
0.0
  0
LWPOLYLINE
  5
1df
100
AcDbEntity
  8
Layer_1
 62
7
100
AcDbPolyline
 90
8
 70
1
 10
0.000000
 20
0.000000
 30
0.0
 10
8.326772
 20
17.982283
 30
0.0
 10
10.629921
 20
12.578740
 30
0.0
 10
30.029528
 20
31.978346
 30
0.0
 10
30.029528
 20
31.978346
 30
0.0
 10
31.978346
 20
30.029528
 30
0.0
 10
12.578740
 20
10.629921
 30
0.0
 10
17.982283
 20
8.326772
 30
0.0
  0
LWPOLYLINE
  5
1e0
100
AcDbEntity
  8
Layer_1
 62
7
100
AcDbPolyline
 90
8
 70
1
 10
283.464567
 20
0.000000
 30
0.0
 10
291.791339
 20
17.982283
 30
0.0
 10
294.094488
 20
12.578740
 30
0.0
 10
313.494094
 20
31.978346
 30
0.0
 10
313.494094
 20
31.978346
 30
0.0
 10
315.442913
 20
30.029528
 30
0.0
 10
296.043307
 20
10.629921
 30
0.0
 10
301.446850
 20
8.326772
 30
0.0
  0
ENDSEC
  0
SECTION
  2
OBJECTS
  0
DICTIONARY
  5
C
330
0
100
AcDbDictionary
  3
ACAD_GROUP
350
D
  3
ACAD_MLINESTYLE
350
17
  0
DICTIONARY
  5
D
330
C
100
AcDbDictionary
  0
DICTIONARY
  5
1A
330
C
100
AcDbDictionary
  0
DICTIONARY
  5
17
330
C
100
AcDbDictionary
  3
STANDARD
350
18
  0
DICTIONARY
  5
19
330
C
100
AcDbDictionary
  0
ENDSEC
  0
EOF
