999
"DXF R12 Output" (www.mydxf.blogspot.com)
 0 
SECTION
 2 
HEADER
 9 
$ACADVER
 1 
AC1009
 9 
$EXTMIN
 10 
 0 
 20 
 0 
 9 
$EXTMAX
 10 
 8.5 
 20 
 11 
 0 
ENDSEC
 0 
SECTION
 2 
ENTITIES
0
LINE
8
Layer 1
10
1.295080
20
84.296200
11
1.295080
21
84.296200
0
LINE
8
Layer 1
10
1.295080
20
84.296200
11
2.590160
21
83.820000
0
LINE
8
Layer 1
10
2.590160
20
83.820000
11
2.435432
21
84.294191
0
LINE
8
Layer 1
10
2.435432
20
84.294191
11
2.590160
21
84.772466
0
LINE
8
Layer 1
10
1.295080
20
84.296200
11
1.295080
21
84.296200
0
LINE
8
Layer 1
10
1.295080
20
84.296200
11
2.590160
21
83.820000
0
LINE
8
Layer 1
10
2.590160
20
83.820000
11
2.435432
21
84.294191
0
LINE
8
Layer 1
10
2.435432
20
84.294191
11
2.590160
21
84.772466
0
LINE
8
Layer 1
10
-1.295080
20
84.296200
11
-1.295080
21
84.296200
0
LINE
8
Layer 1
10
-1.295080
20
84.296200
11
-2.590160
21
83.820000
0
LINE
8
Layer 1
10
-2.590160
20
83.820000
11
-2.435432
21
84.294191
0
LINE
8
Layer 1
10
-2.435432
20
84.294191
11
-2.590160
21
84.772466
0
LINE
8
Layer 1
10
1.295080
20
84.296200
11
1.295080
21
84.296200
0
LINE
8
Layer 1
10
1.295080
20
84.296200
11
2.590160
21
83.820000
0
LINE
8
Layer 1
10
2.590160
20
83.820000
11
2.435432
21
84.294191
0
LINE
8
Layer 1
10
2.435432
20
84.294191
11
2.590160
21
84.772466
0
LINE
8
Layer 1
10
51.066500
20
145.653000
11
50.054800
21
145.620300
0
LINE
8
Layer 1
10
50.054800
20
145.620300
11
48.391103
21
145.215514
0
LINE
8
Layer 1
10
48.391103
20
145.215514
11
47.144840
21
144.429220
0
LINE
8
Layer 1
10
47.144840
20
144.429220
11
46.405356
21
143.514082
0
LINE
8
Layer 1
10
46.405356
20
143.514082
11
45.921380
21
142.336790
0
LINE
8
Layer 1
10
45.921380
20
142.336790
11
45.703744
21
141.247602
0
LINE
8
Layer 1
10
45.703744
20
141.247602
11
45.639022
21
139.812800
0
LINE
8
Layer 1
10
45.639022
20
139.812800
11
45.662751
21
138.293360
0
LINE
8
Layer 1
10
45.662751
20
138.293360
11
45.648464
21
136.935634
0
LINE
8
Layer 1
10
45.648464
20
136.935634
11
45.453298
21
135.727450
0
LINE
8
Layer 1
10
45.453298
20
135.727450
11
45.063375
21
134.613654
0
LINE
8
Layer 1
10
45.063375
20
134.613654
11
44.464821
21
133.539090
0
LINE
8
Layer 1
10
44.464821
20
133.539090
11
43.384331
21
132.201390
0
LINE
8
Layer 1
10
43.384331
20
132.201390
11
41.996682
21
130.422464
0
LINE
8
Layer 1
10
41.996682
20
130.422464
11
40.893929
21
128.677433
0
LINE
8
Layer 1
10
40.893929
20
128.677433
11
40.101112
21
127.011402
0
LINE
8
Layer 1
10
40.101112
20
127.011402
11
39.643271
21
125.469480
0
LINE
8
Layer 1
10
39.643271
20
125.469480
11
39.523925
21
123.793790
0
LINE
8
Layer 1
10
39.523925
20
123.793790
11
39.545291
21
123.471652
0
LINE
8
Layer 1
10
39.545291
20
123.471652
11
39.371748
21
123.302214
0
LINE
8
Layer 1
10
39.371748
20
123.302214
11
38.868364
21
122.728824
0
LINE
8
Layer 1
10
38.868364
20
122.728824
11
38.254926
21
122.091297
0
LINE
8
Layer 1
10
38.254926
20
122.091297
11
37.443744
21
121.742102
0
LINE
8
Layer 1
10
37.443744
20
121.742102
11
36.336174
21
121.178196
0
LINE
8
Layer 1
10
36.336174
20
121.178196
11
36.001085
21
120.760435
0
LINE
8
Layer 1
10
36.001085
20
120.760435
11
35.849367
21
120.406409
0
LINE
8
Layer 1
10
35.849367
20
120.406409
11
35.865216
21
119.180579
0
LINE
8
Layer 1
10
35.865216
20
119.180579
11
35.922358
21
118.337327
0
LINE
8
Layer 1
10
35.922358
20
118.337327
11
35.806785
21
117.700792
0
LINE
8
Layer 1
10
35.806785
20
117.700792
11
35.553255
21
116.654267
0
LINE
8
Layer 1
10
35.553255
20
116.654267
11
35.690183
21
115.880442
0
LINE
8
Layer 1
10
35.690183
20
115.880442
11
36.231348
21
115.352827
0
LINE
8
Layer 1
10
36.231348
20
115.352827
11
37.190525
21
115.044932
0
LINE
8
Layer 1
10
37.190525
20
115.044932
11
38.004838
21
114.928105
0
LINE
8
Layer 1
10
38.004838
20
114.928105
11
39.719308
21
114.660334
0
LINE
8
Layer 1
10
39.719308
20
114.660334
11
40.693138
21
114.345546
0
LINE
8
Layer 1
10
40.693138
20
114.345546
11
42.042908
21
113.769131
0
LINE
8
Layer 1
10
42.042908
20
113.769131
11
43.297759
21
113.481860
0
LINE
8
Layer 1
10
43.297759
20
113.481860
11
44.431048
21
113.481600
0
LINE
8
Layer 1
10
44.431048
20
113.481600
11
45.391170
21
113.761459
0
LINE
8
Layer 1
10
45.391170
20
113.761459
11
46.126518
21
114.314542
0
LINE
8
Layer 1
10
46.126518
20
114.314542
11
46.365481
21
114.635787
0
LINE
8
Layer 1
10
46.365481
20
114.635787
11
46.448889
21
114.780428
0
LINE
8
Layer 1
10
46.448889
20
114.780428
11
46.596887
21
114.792418
0
LINE
8
Layer 1
10
46.596887
20
114.792418
11
47.806507
21
114.944775
0
LINE
8
Layer 1
10
47.806507
20
114.944775
11
49.512617
21
115.153871
0
LINE
8
Layer 1
10
49.512617
20
115.153871
11
51.293597
21
115.025972
0
LINE
8
Layer 1
10
51.293597
20
115.025972
11
53.083637
21
114.851503
0
LINE
8
Layer 1
10
53.083637
20
114.851503
11
53.393500
21
114.848000
0
LINE
8
Layer 1
10
53.393500
20
114.848000
11
53.438361
21
114.700825
0
LINE
8
Layer 1
10
53.438361
20
114.700825
11
53.882195
21
113.919086
0
LINE
8
Layer 1
10
53.882195
20
113.919086
11
54.561541
21
113.307685
0
LINE
8
Layer 1
10
54.561541
20
113.307685
11
55.541874
21
112.948028
0
LINE
8
Layer 1
10
55.541874
20
112.948028
11
56.064187
21
112.938073
0
LINE
8
Layer 1
10
56.064187
20
112.938073
11
56.802698
21
113.013760
0
LINE
8
Layer 1
10
56.802698
20
113.013760
11
58.146507
21
113.565906
0
LINE
8
Layer 1
10
58.146507
20
113.565906
11
59.393628
21
114.576010
0
LINE
8
Layer 1
10
59.393628
20
114.576010
11
60.476408
21
115.460287
0
LINE
8
Layer 1
10
60.476408
20
115.460287
11
61.959758
21
116.209161
0
LINE
8
Layer 1
10
61.959758
20
116.209161
11
63.435288
21
117.031135
0
LINE
8
Layer 1
10
63.435288
20
117.031135
11
63.814568
21
117.531111
0
LINE
8
Layer 1
10
63.814568
20
117.531111
11
63.883838
21
118.094925
0
LINE
8
Layer 1
10
63.883838
20
118.094925
11
63.638612
21
118.753852
0
LINE
8
Layer 1
10
63.638612
20
118.753852
11
63.074399
21
119.539165
0
LINE
8
Layer 1
10
63.074399
20
119.539165
11
62.720494
21
120.065599
0
LINE
8
Layer 1
10
62.720494
20
120.065599
11
62.466103
21
120.959845
0
LINE
8
Layer 1
10
62.466103
20
120.959845
11
62.211319
21
121.832382
0
LINE
8
Layer 1
10
62.211319
20
121.832382
11
61.906278
21
122.308425
0
LINE
8
Layer 1
10
61.906278
20
122.308425
11
61.341209
21
122.712583
0
LINE
8
Layer 1
10
61.341209
20
122.712583
11
61.327193
21
122.993904
0
LINE
8
Layer 1
10
61.327193
20
122.993904
11
61.633803
21
124.623784
0
LINE
8
Layer 1
10
61.633803
20
124.623784
11
61.584923
21
125.958866
0
LINE
8
Layer 1
10
61.584923
20
125.958866
11
61.275331
21
127.326654
0
LINE
8
Layer 1
10
61.275331
20
127.326654
11
60.817258
21
128.522703
0
LINE
8
Layer 1
10
60.817258
20
128.522703
11
60.183179
21
129.739325
0
LINE
8
Layer 1
10
60.183179
20
129.739325
11
58.310901
21
132.363354
0
LINE
8
Layer 1
10
58.310901
20
132.363354
11
56.762653
21
134.452255
0
LINE
8
Layer 1
10
56.762653
20
134.452255
11
56.106431
21
136.029334
0
LINE
8
Layer 1
10
56.106431
20
136.029334
11
56.013399
21
138.162324
0
LINE
8
Layer 1
10
56.013399
20
138.162324
11
55.885913
21
141.331634
0
LINE
8
Layer 1
10
55.885913
20
141.331634
11
55.651216
21
142.386902
0
LINE
8
Layer 1
10
55.651216
20
142.386902
11
55.288704
21
143.303304
0
LINE
8
Layer 1
10
55.288704
20
143.303304
11
54.512448
21
144.412094
0
LINE
8
Layer 1
10
54.512448
20
144.412094
11
53.432099
21
145.178784
0
LINE
8
Layer 1
10
53.432099
20
145.178784
11
52.048728
21
145.594814
0
LINE
8
Layer 1
10
52.048728
20
145.594814
11
51.066560
21
145.653442
0
LINE
8
Layer 1
10
51.066560
20
145.653442
11
51.066500
21
145.653000
0
LINE
8
Layer 1
10
51.752373
20
141.139350
11
52.451446
21
140.934846
0
LINE
8
Layer 1
10
52.451446
20
140.934846
11
52.998900
21
140.405523
0
LINE
8
Layer 1
10
52.998900
20
140.405523
11
53.328214
21
139.648984
0
LINE
8
Layer 1
10
53.328214
20
139.648984
11
53.372863
21
138.762830
0
LINE
8
Layer 1
10
53.372863
20
138.762830
11
52.951795
21
137.671360
0
LINE
8
Layer 1
10
52.951795
20
137.671360
11
52.823812
21
137.528794
0
LINE
8
Layer 1
10
52.823812
20
137.528794
11
52.029253
21
137.844766
0
LINE
8
Layer 1
10
52.029253
20
137.844766
11
52.126937
21
137.981381
0
LINE
8
Layer 1
10
52.126937
20
137.981381
11
52.325096
21
138.319972
0
LINE
8
Layer 1
10
52.325096
20
138.319972
11
52.388827
21
138.794337
0
LINE
8
Layer 1
10
52.388827
20
138.794337
11
52.317721
21
139.292706
0
LINE
8
Layer 1
10
52.317721
20
139.292706
11
52.091771
21
139.682265
0
LINE
8
Layer 1
10
52.091771
20
139.682265
11
51.686634
21
139.872628
0
LINE
8
Layer 1
10
51.686634
20
139.872628
11
51.371666
21
139.791849
0
LINE
8
Layer 1
10
51.371666
20
139.791849
11
51.117191
21
139.555471
0
LINE
8
Layer 1
10
51.117191
20
139.555471
11
50.871387
21
138.730358
0
LINE
8
Layer 1
10
50.871387
20
138.730358
11
50.823054
21
138.454353
0
LINE
8
Layer 1
10
50.823054
20
138.454353
11
50.058824
21
138.712022
0
LINE
8
Layer 1
10
50.058824
20
138.712022
11
50.007671
21
139.102412
0
LINE
8
Layer 1
10
50.007671
20
139.102412
11
50.078756
21
139.685445
0
LINE
8
Layer 1
10
50.078756
20
139.685445
11
50.291279
21
140.211322
0
LINE
8
Layer 1
10
50.291279
20
140.211322
11
50.684871
21
140.695911
0
LINE
8
Layer 1
10
50.684871
20
140.695911
11
51.194798
21
141.044593
0
LINE
8
Layer 1
10
51.194798
20
141.044593
11
51.752371
21
141.139361
0
LINE
8
Layer 1
10
51.752371
20
141.139361
11
51.752373
21
141.139350
0
LINE
8
Layer 1
10
47.518043
20
140.872774
11
47.862780
21
140.796903
0
LINE
8
Layer 1
10
47.862780
20
140.796903
11
48.281680
21
140.461404
0
LINE
8
Layer 1
10
48.281680
20
140.461404
11
48.592531
21
139.948728
0
LINE
8
Layer 1
10
48.592531
20
139.948728
11
48.734164
21
139.099576
0
LINE
8
Layer 1
10
48.734164
20
139.099576
11
48.726174
21
138.719590
0
LINE
8
Layer 1
10
48.726174
20
138.719590
11
48.483118
21
138.630370
0
LINE
8
Layer 1
10
48.483118
20
138.630370
11
48.172562
21
138.497363
0
LINE
8
Layer 1
10
48.172562
20
138.497363
11
48.088456
21
138.454088
0
LINE
8
Layer 1
10
48.088456
20
138.454088
11
48.062902
21
138.728920
0
LINE
8
Layer 1
10
48.062902
20
138.728920
11
47.898137
21
139.386343
0
LINE
8
Layer 1
10
47.898137
20
139.386343
11
47.518981
21
139.680013
0
LINE
8
Layer 1
10
47.518981
20
139.680013
11
47.128454
21
139.482198
0
LINE
8
Layer 1
10
47.128454
20
139.482198
11
46.965900
21
138.851148
0
LINE
8
Layer 1
10
46.965900
20
138.851148
11
47.029566
21
138.340464
0
LINE
8
Layer 1
10
47.029566
20
138.340464
11
47.247764
21
137.945314
0
LINE
8
Layer 1
10
47.247764
20
137.945314
11
47.326323
21
137.857138
0
LINE
8
Layer 1
10
47.326323
20
137.857138
11
47.128939
21
137.720883
0
LINE
8
Layer 1
10
47.128939
20
137.720883
11
46.900072
21
137.567532
0
LINE
8
Layer 1
10
46.900072
20
137.567532
11
46.566503
21
137.988054
0
LINE
8
Layer 1
10
46.566503
20
137.988054
11
46.341303
21
138.698902
0
LINE
8
Layer 1
10
46.341303
20
138.698902
11
46.350781
21
139.614007
0
LINE
8
Layer 1
10
46.350781
20
139.614007
11
46.663255
21
140.362656
0
LINE
8
Layer 1
10
46.663255
20
140.362656
11
47.173392
21
140.807767
0
LINE
8
Layer 1
10
47.173392
20
140.807767
11
47.518050
21
140.872770
0
LINE
8
Layer 1
10
47.518050
20
140.872770
11
47.518043
21
140.872774
0
LINE
8
Layer 1
10
49.393783
20
138.462544
11
50.060496
21
138.378266
0
LINE
8
Layer 1
10
50.060496
20
138.378266
11
50.912263
21
137.993788
0
LINE
8
Layer 1
10
50.912263
20
137.993788
11
51.987903
21
137.512258
0
LINE
8
Layer 1
10
51.987903
20
137.512258
11
53.039363
21
136.996947
0
LINE
8
Layer 1
10
53.039363
20
136.996947
11
53.264421
21
136.577662
0
LINE
8
Layer 1
10
53.264421
20
136.577662
11
53.150723
21
136.090563
0
LINE
8
Layer 1
10
53.150723
20
136.090563
11
52.674527
21
135.591971
0
LINE
8
Layer 1
10
52.674527
20
135.591971
11
51.921923
21
135.186723
0
LINE
8
Layer 1
10
51.921923
20
135.186723
11
51.035442
21
134.785617
0
LINE
8
Layer 1
10
51.035442
20
134.785617
11
49.820102
21
134.271347
0
LINE
8
Layer 1
10
49.820102
20
134.271347
11
49.294889
21
134.187648
0
LINE
8
Layer 1
10
49.294889
20
134.187648
11
48.806402
21
134.258280
0
LINE
8
Layer 1
10
48.806402
20
134.258280
11
47.739292
21
134.906821
0
LINE
8
Layer 1
10
47.739292
20
134.906821
11
47.197598
21
135.310380
0
LINE
8
Layer 1
10
47.197598
20
135.310380
11
46.617210
21
135.763774
0
LINE
8
Layer 1
10
46.617210
20
135.763774
11
46.331993
21
136.165710
0
LINE
8
Layer 1
10
46.331993
20
136.165710
11
46.283441
21
136.530667
0
LINE
8
Layer 1
10
46.283441
20
136.530667
11
46.446969
21
136.842374
0
LINE
8
Layer 1
10
46.446969
20
136.842374
11
46.992915
21
137.249311
0
LINE
8
Layer 1
10
46.992915
20
137.249311
11
47.699404
21
137.770046
0
LINE
8
Layer 1
10
47.699404
20
137.770046
11
48.502064
21
138.297403
0
LINE
8
Layer 1
10
48.502064
20
138.297403
11
49.393777
21
138.462546
0
LINE
8
Layer 1
10
49.393777
20
138.462546
11
49.393783
21
138.462544
0
LINE
8
Layer 1
10
49.993198
20
138.066396
11
49.754081
21
138.013929
0
LINE
8
Layer 1
10
49.754081
20
138.013929
11
49.718540
21
137.889495
0
LINE
8
Layer 1
10
49.718540
20
137.889495
11
49.951906
21
137.736305
0
LINE
8
Layer 1
10
49.951906
20
137.736305
11
50.206550
21
137.637446
0
LINE
8
Layer 1
10
50.206550
20
137.637446
11
50.421940
21
137.754166
0
LINE
8
Layer 1
10
50.421940
20
137.754166
11
50.332125
21
137.957706
0
LINE
8
Layer 1
10
50.332125
20
137.957706
11
49.993198
21
138.066395
0
LINE
8
Layer 1
10
49.993198
20
138.066395
11
49.993198
21
138.066396
0
LINE
8
Layer 1
10
48.719148
20
138.079567
11
48.297910
21
137.885523
0
LINE
8
Layer 1
10
48.297910
20
137.885523
11
48.363666
21
137.697660
0
LINE
8
Layer 1
10
48.363666
20
137.697660
11
48.693744
21
137.731475
0
LINE
8
Layer 1
10
48.693744
20
137.731475
11
48.894900
21
137.805542
0
LINE
8
Layer 1
10
48.894900
20
137.805542
11
49.011796
21
137.960918
0
LINE
8
Layer 1
10
49.011796
20
137.960918
11
48.719149
21
138.079566
0
LINE
8
Layer 1
10
48.719149
20
138.079566
11
48.719148
21
138.079567
0
LINE
8
Layer 1
10
52.412798
20
136.852577
11
52.118633
21
136.631278
0
LINE
8
Layer 1
10
52.118633
20
136.631278
11
51.302681
21
136.059274
0
LINE
8
Layer 1
10
51.302681
20
136.059274
11
50.346563
21
135.591658
0
LINE
8
Layer 1
10
50.346563
20
135.591658
11
49.235983
21
135.332163
0
LINE
8
Layer 1
10
49.235983
20
135.332163
11
48.314969
21
135.465730
0
LINE
8
Layer 1
10
48.314969
20
135.465730
11
47.645251
21
135.839978
0
LINE
8
Layer 1
10
47.645251
20
135.839978
11
47.057439
21
136.339915
0
LINE
8
Layer 1
10
47.057439
20
136.339915
11
46.650357
21
136.696515
0
LINE
8
Layer 1
10
46.650357
20
136.696515
11
46.545675
21
136.537063
0
LINE
8
Layer 1
10
46.545675
20
136.537063
11
46.852520
21
136.066201
0
LINE
8
Layer 1
10
46.852520
20
136.066201
11
47.675670
21
135.440808
0
LINE
8
Layer 1
10
47.675670
20
135.440808
11
48.503730
21
135.090486
0
LINE
8
Layer 1
10
48.503730
20
135.090486
11
49.255004
21
135.022988
0
LINE
8
Layer 1
10
49.255004
20
135.022988
11
50.078570
21
135.174554
0
LINE
8
Layer 1
10
50.078570
20
135.174554
11
51.605920
21
135.857409
0
LINE
8
Layer 1
10
51.605920
20
135.857409
11
52.602763
21
136.673095
0
LINE
8
Layer 1
10
52.602763
20
136.673095
11
52.578561
21
136.822767
0
LINE
8
Layer 1
10
52.578561
20
136.822767
11
52.412791
21
136.852581
0
LINE
8
Layer 1
10
52.412791
20
136.852581
11
52.412798
21
136.852577
0
LINE
8
Layer 1
10
52.928879
20
134.544987
11
53.029163
21
134.267999
0
LINE
8
Layer 1
10
53.029163
20
134.267999
11
54.672473
21
130.136759
0
LINE
8
Layer 1
10
54.672473
20
130.136759
11
56.191513
21
126.361849
0
LINE
8
Layer 1
10
56.191513
20
126.361849
11
56.454905
21
125.534378
0
LINE
8
Layer 1
10
56.454905
20
125.534378
11
56.496512
21
125.379703
0
LINE
8
Layer 1
10
56.496512
20
125.379703
11
56.112317
21
125.006910
0
LINE
8
Layer 1
10
56.112317
20
125.006910
11
54.784477
21
123.567789
0
LINE
8
Layer 1
10
54.784477
20
123.567789
11
54.133197
21
122.448970
0
LINE
8
Layer 1
10
54.133197
20
122.448970
11
53.781088
21
120.663720
0
LINE
8
Layer 1
10
53.781088
20
120.663720
11
53.456154
21
118.894890
0
LINE
8
Layer 1
10
53.456154
20
118.894890
11
53.172627
21
118.144170
0
LINE
8
Layer 1
10
53.172627
20
118.144170
11
52.765507
21
117.850976
0
LINE
8
Layer 1
10
52.765507
20
117.850976
11
51.873548
21
117.484357
0
LINE
8
Layer 1
10
51.873548
20
117.484357
11
50.939919
21
117.192277
0
LINE
8
Layer 1
10
50.939919
20
117.192277
11
50.119008
21
117.086737
0
LINE
8
Layer 1
10
50.119008
20
117.086737
11
48.445608
21
117.130314
0
LINE
8
Layer 1
10
48.445608
20
117.130314
11
47.507061
21
117.447814
0
LINE
8
Layer 1
10
47.507061
20
117.447814
11
46.426561
21
118.168319
0
LINE
8
Layer 1
10
46.426561
20
118.168319
11
46.351729
21
118.257957
0
LINE
8
Layer 1
10
46.351729
20
118.257957
11
46.567400
21
118.452199
0
LINE
8
Layer 1
10
46.567400
20
118.452199
11
46.946100
21
118.936165
0
LINE
8
Layer 1
10
46.946100
20
118.936165
11
47.067697
21
119.523359
0
LINE
8
Layer 1
10
47.067697
20
119.523359
11
46.989723
21
120.077745
0
LINE
8
Layer 1
10
46.989723
20
120.077745
11
46.738310
21
120.665457
0
LINE
8
Layer 1
10
46.738310
20
120.665457
11
45.728577
21
121.916819
0
LINE
8
Layer 1
10
45.728577
20
121.916819
11
43.966887
21
123.338279
0
LINE
8
Layer 1
10
43.966887
20
123.338279
11
43.199785
21
123.919358
0
LINE
8
Layer 1
10
43.199785
20
123.919358
11
43.278440
21
124.018812
0
LINE
8
Layer 1
10
43.278440
20
124.018812
11
43.708516
21
125.336712
0
LINE
8
Layer 1
10
43.708516
20
125.336712
11
44.178191
21
126.995962
0
LINE
8
Layer 1
10
44.178191
20
126.995962
11
45.392556
21
129.705932
0
LINE
8
Layer 1
10
45.392556
20
129.705932
11
46.454098
21
132.055986
0
LINE
8
Layer 1
10
46.454098
20
132.055986
11
47.009626
21
133.634372
0
LINE
8
Layer 1
10
47.009626
20
133.634372
11
47.144503
21
134.096908
0
LINE
8
Layer 1
10
47.144503
20
134.096908
11
47.395051
21
133.928418
0
LINE
8
Layer 1
10
47.395051
20
133.928418
11
48.430863
21
133.408196
0
LINE
8
Layer 1
10
48.430863
20
133.408196
11
49.440041
21
133.261725
0
LINE
8
Layer 1
10
49.440041
20
133.261725
11
50.261284
21
133.427345
0
LINE
8
Layer 1
10
50.261284
20
133.427345
11
51.883981
21
134.107597
0
LINE
8
Layer 1
10
51.883981
20
134.107597
11
52.928881
21
134.545000
0
LINE
8
Layer 1
10
52.928881
20
134.545000
11
52.928879
21
134.544987
0
LINE
8
Layer 1
10
56.208849
20
131.191137
11
56.652408
21
130.854586
0
LINE
8
Layer 1
10
56.652408
20
130.854586
11
57.599781
21
129.641356
0
LINE
8
Layer 1
10
57.599781
20
129.641356
11
57.674036
21
129.422315
0
LINE
8
Layer 1
10
57.674036
20
129.422315
11
57.588230
21
129.372123
0
LINE
8
Layer 1
10
57.588230
20
129.372123
11
57.522734
21
129.321975
0
LINE
8
Layer 1
10
57.522734
20
129.321975
11
57.430195
21
129.470057
0
LINE
8
Layer 1
10
57.430195
20
129.470057
11
56.884723
21
130.302618
0
LINE
8
Layer 1
10
56.884723
20
130.302618
11
56.533437
21
130.702552
0
LINE
8
Layer 1
10
56.533437
20
130.702552
11
56.226657
21
131.058179
0
LINE
8
Layer 1
10
56.226657
20
131.058179
11
56.208850
21
131.191135
0
LINE
8
Layer 1
10
56.208850
20
131.191135
11
56.208849
21
131.191137
0
LINE
8
Layer 1
10
43.789449
20
130.804696
11
43.266778
21
129.711196
0
LINE
8
Layer 1
10
43.266778
20
129.711196
11
42.743543
21
128.724791
0
LINE
8
Layer 1
10
42.743543
20
128.724791
11
42.661390
21
128.568067
0
LINE
8
Layer 1
10
42.661390
20
128.568067
11
42.477050
21
128.685943
0
LINE
8
Layer 1
10
42.477050
20
128.685943
11
43.196377
21
129.963373
0
LINE
8
Layer 1
10
43.196377
20
129.963373
11
43.789449
21
130.804700
0
LINE
8
Layer 1
10
43.789449
20
130.804700
11
43.789449
21
130.804696
0
LINE
8
Layer 1
10
58.257449
20
125.354616
11
58.254800
21
125.240000
0
LINE
8
Layer 1
10
58.254800
20
125.240000
11
58.113855
21
125.148277
0
LINE
8
Layer 1
10
58.113855
20
125.148277
11
58.163566
21
125.260164
0
LINE
8
Layer 1
10
58.163566
20
125.260164
11
58.257449
21
125.354616
0
LINE
8
Layer 1
10
40.401349
20
123.086116
11
40.738908
21
123.071573
0
LINE
8
Layer 1
10
40.738908
20
123.071573
11
41.249295
21
122.973085
0
LINE
8
Layer 1
10
41.249295
20
122.973085
11
42.010675
21
122.187554
0
LINE
8
Layer 1
10
42.010675
20
122.187554
11
42.654092
21
121.109404
0
LINE
8
Layer 1
10
42.654092
20
121.109404
11
44.529542
21
118.227994
0
LINE
8
Layer 1
10
44.529542
20
118.227994
11
45.588281
21
116.680838
0
LINE
8
Layer 1
10
45.588281
20
116.680838
11
45.905662
21
115.798174
0
LINE
8
Layer 1
10
45.905662
20
115.798174
11
45.608034
21
114.983561
0
LINE
8
Layer 1
10
45.608034
20
114.983561
11
45.157033
21
114.560962
0
LINE
8
Layer 1
10
45.157033
20
114.560962
11
44.509534
21
114.294655
0
LINE
8
Layer 1
10
44.509534
20
114.294655
11
43.332594
21
114.262546
0
LINE
8
Layer 1
10
43.332594
20
114.262546
11
41.590414
21
114.811066
0
LINE
8
Layer 1
10
41.590414
20
114.811066
11
40.188379
21
115.306908
0
LINE
8
Layer 1
10
40.188379
20
115.306908
11
38.238244
21
115.679277
0
LINE
8
Layer 1
10
38.238244
20
115.679277
11
36.740454
21
115.993623
0
LINE
8
Layer 1
10
36.740454
20
115.993623
11
36.464071
21
116.199897
0
LINE
8
Layer 1
10
36.464071
20
116.199897
11
36.405516
21
116.565594
0
LINE
8
Layer 1
10
36.405516
20
116.565594
11
36.596944
21
117.536306
0
LINE
8
Layer 1
10
36.596944
20
117.536306
11
36.700143
21
118.327446
0
LINE
8
Layer 1
10
36.700143
20
118.327446
11
36.669455
21
119.183333
0
LINE
8
Layer 1
10
36.669455
20
119.183333
11
36.677782
21
120.324693
0
LINE
8
Layer 1
10
36.677782
20
120.324693
11
36.940583
21
120.653951
0
LINE
8
Layer 1
10
36.940583
20
120.653951
11
37.663886
21
120.997531
0
LINE
8
Layer 1
10
37.663886
20
120.997531
11
38.724962
21
121.518763
0
LINE
8
Layer 1
10
38.724962
20
121.518763
11
39.738276
21
122.474941
0
LINE
8
Layer 1
10
39.738276
20
122.474941
11
40.279628
21
123.000789
0
LINE
8
Layer 1
10
40.279628
20
123.000789
11
40.401349
21
123.086116
0
LINE
8
Layer 1
10
55.910849
20
122.677960
11
55.955088
21
122.556736
0
LINE
8
Layer 1
10
55.955088
20
122.556736
11
56.654370
21
121.472446
0
LINE
8
Layer 1
10
56.654370
20
121.472446
11
57.296327
21
121.158110
0
LINE
8
Layer 1
10
57.296327
20
121.158110
11
58.213051
21
121.156428
0
LINE
8
Layer 1
10
58.213051
20
121.156428
11
58.997794
21
121.399881
0
LINE
8
Layer 1
10
58.997794
20
121.399881
11
59.750351
21
121.843682
0
LINE
8
Layer 1
10
59.750351
20
121.843682
11
60.105398
21
122.029372
0
LINE
8
Layer 1
10
60.105398
20
122.029372
11
60.588335
21
122.053548
0
LINE
8
Layer 1
10
60.588335
20
122.053548
11
61.053707
21
121.977653
0
LINE
8
Layer 1
10
61.053707
20
121.977653
11
61.333928
21
121.697646
0
LINE
8
Layer 1
10
61.333928
20
121.697646
11
61.587582
21
121.057457
0
LINE
8
Layer 1
10
61.587582
20
121.057457
11
62.055156
21
119.697610
0
LINE
8
Layer 1
10
62.055156
20
119.697610
11
62.583047
21
118.851467
0
LINE
8
Layer 1
10
62.583047
20
118.851467
11
63.050370
21
118.056048
0
LINE
8
Layer 1
10
63.050370
20
118.056048
11
63.038000
21
117.827787
0
LINE
8
Layer 1
10
63.038000
20
117.827787
11
62.880414
21
117.635937
0
LINE
8
Layer 1
10
62.880414
20
117.635937
11
61.580154
21
116.899820
0
LINE
8
Layer 1
10
61.580154
20
116.899820
11
60.159863
21
116.139708
0
LINE
8
Layer 1
10
60.159863
20
116.139708
11
59.039114
21
115.286560
0
LINE
8
Layer 1
10
59.039114
20
115.286560
11
58.315342
21
114.698172
0
LINE
8
Layer 1
10
58.315342
20
114.698172
11
57.355020
21
114.047128
0
LINE
8
Layer 1
10
57.355020
20
114.047128
11
56.536102
21
113.785938
0
LINE
8
Layer 1
10
56.536102
20
113.785938
11
55.493882
21
113.750911
0
LINE
8
Layer 1
10
55.493882
20
113.750911
11
54.848527
21
114.090930
0
LINE
8
Layer 1
10
54.848527
20
114.090930
11
54.385747
21
114.651773
0
LINE
8
Layer 1
10
54.385747
20
114.651773
11
54.180548
21
115.223990
0
LINE
8
Layer 1
10
54.180548
20
115.223990
11
54.250353
21
116.062182
0
LINE
8
Layer 1
10
54.250353
20
116.062182
11
54.660436
21
117.588910
0
LINE
8
Layer 1
10
54.660436
20
117.588910
11
55.295010
21
120.657140
0
LINE
8
Layer 1
10
55.295010
20
120.657140
11
55.516569
21
121.928193
0
LINE
8
Layer 1
10
55.516569
20
121.928193
11
55.830814
21
122.585460
0
LINE
8
Layer 1
10
55.830814
20
122.585460
11
55.910849
21
122.677960
0
LINE
8
Layer 1
10
0.000000
20
0.000066
11
0.829027
21
1.790416
0
LINE
8
Layer 1
10
0.829027
20
1.790416
11
1.058332
21
1.252430
0
LINE
8
Layer 1
10
1.058332
20
1.252430
11
2.989792
21
3.183890
0
LINE
8
Layer 1
10
2.989792
20
3.183890
11
2.989792
21
3.183890
0
LINE
8
Layer 1
10
2.989792
20
3.183890
11
3.183820
21
2.989862
0
LINE
8
Layer 1
10
3.183820
20
2.989862
11
1.252360
21
1.058402
0
LINE
8
Layer 1
10
1.252360
20
1.058402
11
1.790346
21
0.829097
0
LINE
8
Layer 1
10
1.790346
20
0.829097
11
0.000000
21
0.000066
0
LINE
8
Layer 1
10
28.222200
20
0.000066
11
29.051227
21
1.790416
0
LINE
8
Layer 1
10
29.051227
20
1.790416
11
29.280532
21
1.252430
0
LINE
8
Layer 1
10
29.280532
20
1.252430
11
31.211992
21
3.183890
0
LINE
8
Layer 1
10
31.211992
20
3.183890
11
31.211992
21
3.183890
0
LINE
8
Layer 1
10
31.211992
20
3.183890
11
31.406020
21
2.989862
0
LINE
8
Layer 1
10
31.406020
20
2.989862
11
29.474560
21
1.058402
0
LINE
8
Layer 1
10
29.474560
20
1.058402
11
30.012546
21
0.829097
0
LINE
8
Layer 1
10
30.012546
20
0.829097
11
28.222200
21
0.000066
0
LINE
8
Layer 1
10
-5.644440
20
89.464400
11
107.244560
21
89.464400
0
LINE
8
Layer 1
10
107.244560
20
89.464400
11
107.244560
21
-14.957600
0
LINE
8
Layer 1
10
107.244560
20
-14.957600
11
-5.644440
21
-14.957600
0
LINE
8
Layer 1
10
-5.644440
20
-14.957600
11
-5.644440
21
89.464400
0
LINE
8
Layer 1
10
26.750900
20
45.149400
11
25.741300
21
45.091000
0
LINE
8
Layer 1
10
25.741300
20
45.091000
11
22.889000
21
43.826600
0
LINE
8
Layer 1
10
22.889000
20
43.826600
11
21.764500
21
41.704300
0
LINE
8
Layer 1
10
21.764500
20
41.704300
11
21.600700
21
39.174700
0
LINE
8
Layer 1
10
21.600700
20
39.174700
11
21.695700
21
37.656700
0
LINE
8
Layer 1
10
21.695700
20
37.656700
11
20.721600
21
32.875000
0
LINE
8
Layer 1
10
20.721600
20
32.875000
11
19.704600
21
31.510400
0
LINE
8
Layer 1
10
19.704600
20
31.510400
11
16.281700
21
24.687700
0
LINE
8
Layer 1
10
16.281700
20
24.687700
11
16.241100
21
23.009900
0
LINE
8
Layer 1
10
16.241100
20
23.009900
11
16.277500
21
22.688500
0
LINE
8
Layer 1
10
16.277500
20
22.688500
11
16.112000
21
22.514900
0
LINE
8
Layer 1
10
16.112000
20
22.514900
11
15.635900
21
21.929000
0
LINE
8
Layer 1
10
15.635900
20
21.929000
11
14.258400
21
20.906500
0
LINE
8
Layer 1
10
14.258400
20
20.906500
11
13.178000
21
20.315000
0
LINE
8
Layer 1
10
13.178000
20
20.315000
11
12.862700
21
19.888800
0
LINE
8
Layer 1
10
12.862700
20
19.888800
11
12.727600
21
19.531200
0
LINE
8
Layer 1
10
12.727600
20
19.531200
11
12.801000
21
18.306700
0
LINE
8
Layer 1
10
12.801000
20
18.306700
11
12.897700
21
17.465400
0
LINE
8
Layer 1
10
12.897700
20
17.465400
11
12.812100
21
16.826100
0
LINE
8
Layer 1
10
12.812100
20
16.826100
11
14.319600
21
14.207100
0
LINE
8
Layer 1
10
14.319600
20
14.207100
11
15.139000
21
14.110900
0
LINE
8
Layer 1
10
15.139000
20
14.110900
11
17.853000
21
13.597000
0
LINE
8
Layer 1
10
17.853000
20
13.597000
11
19.229000
21
13.055100
0
LINE
8
Layer 1
10
19.229000
20
13.055100
11
23.284600
21
13.703900
0
LINE
8
Layer 1
10
23.284600
20
13.703900
11
23.508300
21
14.031000
0
LINE
8
Layer 1
10
23.508300
20
14.031000
11
23.584900
21
14.177800
0
LINE
8
Layer 1
10
23.584900
20
14.177800
11
23.732300
21
14.193600
0
LINE
8
Layer 1
10
23.732300
20
14.193600
11
24.934000
21
14.376500
0
LINE
8
Layer 1
10
24.934000
20
14.376500
11
26.629300
21
14.628800
0
LINE
8
Layer 1
10
26.629300
20
14.628800
11
28.415200
21
14.546400
0
LINE
8
Layer 1
10
28.415200
20
14.546400
11
30.212400
21
14.417400
0
LINE
8
Layer 1
10
30.212400
20
14.417400
11
30.522300
21
14.421300
0
LINE
8
Layer 1
10
30.522300
20
14.421300
11
30.574000
21
14.275400
0
LINE
8
Layer 1
10
30.574000
20
14.275400
11
31.761800
21
12.911400
0
LINE
8
Layer 1
10
31.761800
20
12.911400
11
32.758400
21
12.577000
0
LINE
8
Layer 1
10
32.758400
20
12.577000
11
33.281000
21
12.580400
0
LINE
8
Layer 1
10
33.281000
20
12.580400
11
34.015400
21
12.674700
0
LINE
8
Layer 1
10
34.015400
20
12.674700
11
36.531400
21
14.301700
0
LINE
8
Layer 1
10
36.531400
20
14.301700
11
37.572200
21
15.213000
0
LINE
8
Layer 1
10
37.572200
20
15.213000
11
39.019400
21
15.999200
0
LINE
8
Layer 1
10
39.019400
20
15.999200
11
40.455400
21
16.858000
0
LINE
8
Layer 1
10
40.455400
20
16.858000
11
39.977000
21
19.355400
0
LINE
8
Layer 1
10
39.977000
20
19.355400
11
39.302500
21
20.759800
0
LINE
8
Layer 1
10
39.302500
20
20.759800
11
38.679700
21
22.093500
0
LINE
8
Layer 1
10
38.679700
20
22.093500
11
38.096000
21
22.483000
0
LINE
8
Layer 1
10
38.096000
20
22.483000
11
38.068900
21
22.763800
0
LINE
8
Layer 1
10
38.068900
20
22.763800
11
38.298700
21
24.400400
0
LINE
8
Layer 1
10
38.298700
20
24.400400
11
37.813800
21
27.092500
0
LINE
8
Layer 1
10
37.813800
20
27.092500
11
34.614500
21
32.051200
0
LINE
8
Layer 1
10
34.614500
20
32.051200
11
32.239300
21
35.658800
0
LINE
8
Layer 1
10
32.239300
20
35.658800
11
32.046300
21
37.788200
0
LINE
8
Layer 1
10
32.046300
20
37.788200
11
31.770300
21
40.952500
0
LINE
8
Layer 1
10
31.770300
20
40.952500
11
31.080800
21
42.907700
0
LINE
8
Layer 1
10
31.080800
20
42.907700
11
30.253100
21
43.996200
0
LINE
8
Layer 1
10
30.253100
20
43.996200
11
27.735200
21
45.115500
0
LINE
8
Layer 1
10
27.735200
20
45.115500
11
26.750900
21
45.149400
0
LINE
8
Layer 1
10
26.750900
20
45.149400
11
26.750900
21
45.149400
0
LINE
8
Layer 1
10
27.648200
20
40.655800
11
29.379300
21
38.321900
0
LINE
8
Layer 1
10
29.379300
20
38.321900
11
29.009600
21
37.220400
0
LINE
8
Layer 1
10
29.009600
20
37.220400
11
28.888500
21
37.074400
0
LINE
8
Layer 1
10
28.888500
20
37.074400
11
28.079500
21
37.370200
0
LINE
8
Layer 1
10
28.079500
20
37.370200
11
28.170700
21
37.509100
0
LINE
8
Layer 1
10
28.170700
20
37.509100
11
28.394400
21
38.328400
0
LINE
8
Layer 1
10
28.394400
20
38.328400
11
28.055700
21
39.208000
0
LINE
8
Layer 1
10
28.055700
20
39.208000
11
27.641900
21
39.388100
0
LINE
8
Layer 1
10
27.641900
20
39.388100
11
26.880800
21
38.225900
0
LINE
8
Layer 1
10
26.880800
20
38.225900
11
26.845400
21
37.948800
0
LINE
8
Layer 1
10
26.845400
20
37.948800
11
26.069600
21
38.187000
0
LINE
8
Layer 1
10
26.069600
20
38.187000
11
26.000100
21
38.575600
0
LINE
8
Layer 1
10
26.000100
20
38.575600
11
26.231500
21
39.691200
0
LINE
8
Layer 1
10
26.231500
20
39.691200
11
26.602100
21
40.185400
0
LINE
8
Layer 1
10
26.602100
20
40.185400
11
27.648200
21
40.655800
0
LINE
8
Layer 1
10
27.648200
20
40.655800
11
27.648200
21
40.655800
0
LINE
8
Layer 1
10
23.428900
20
40.281900
11
23.777000
21
40.214700
0
LINE
8
Layer 1
10
23.777000
20
40.214700
11
24.546100
21
39.385600
0
LINE
8
Layer 1
10
24.546100
20
39.385600
11
24.727500
21
38.540600
0
LINE
8
Layer 1
10
24.727500
20
38.540600
11
24.737300
21
38.160400
0
LINE
8
Layer 1
10
24.737300
20
38.160400
11
24.498600
21
38.065300
0
LINE
8
Layer 1
10
24.498600
20
38.065300
11
24.194500
21
37.924500
0
LINE
8
Layer 1
10
24.194500
20
37.924500
11
24.112500
21
37.879100
0
LINE
8
Layer 1
10
24.112500
20
37.879100
11
24.074000
21
38.153100
0
LINE
8
Layer 1
10
24.074000
20
38.153100
11
23.485800
21
39.089800
0
LINE
8
Layer 1
10
23.485800
20
39.089800
11
22.971900
21
38.247400
0
LINE
8
Layer 1
10
22.971900
20
38.247400
11
23.296200
21
37.349300
0
LINE
8
Layer 1
10
23.296200
20
37.349300
11
23.378800
21
37.263000
0
LINE
8
Layer 1
10
23.378800
20
37.263000
11
23.187900
21
37.121900
0
LINE
8
Layer 1
10
23.187900
20
37.121900
11
22.966400
21
36.962700
0
LINE
8
Layer 1
10
22.966400
20
36.962700
11
22.613300
21
37.374700
0
LINE
8
Layer 1
10
22.613300
20
37.374700
11
22.354900
21
38.079400
0
LINE
8
Layer 1
10
22.354900
20
38.079400
11
22.321400
21
38.994100
0
LINE
8
Layer 1
10
22.321400
20
38.994100
11
23.087500
21
40.208000
0
LINE
8
Layer 1
10
23.087500
20
40.208000
11
23.428900
21
40.281900
0
LINE
8
Layer 1
10
23.428900
20
40.281900
11
23.428900
21
40.281900
0
LINE
8
Layer 1
10
25.416600
20
37.920500
11
26.956200
21
37.490700
0
LINE
8
Layer 1
10
26.956200
20
37.490700
11
28.053800
21
37.036900
0
LINE
8
Layer 1
10
28.053800
20
37.036900
11
29.128700
21
36.548400
0
LINE
8
Layer 1
10
29.128700
20
36.548400
11
29.282500
21
35.645600
0
LINE
8
Layer 1
10
29.282500
20
35.645600
11
28.097000
21
34.710800
0
LINE
8
Layer 1
10
28.097000
20
34.710800
11
27.229900
21
34.287500
0
LINE
8
Layer 1
10
27.229900
20
34.287500
11
26.039400
21
33.742800
0
LINE
8
Layer 1
10
26.039400
20
33.742800
11
25.026900
21
33.703900
0
LINE
8
Layer 1
10
25.026900
20
33.703900
11
23.930000
21
34.325000
0
LINE
8
Layer 1
10
23.930000
20
34.325000
11
23.369700
21
34.714500
0
LINE
8
Layer 1
10
23.369700
20
34.714500
11
22.464400
21
35.547300
0
LINE
8
Layer 1
10
22.464400
20
35.547300
11
22.547600
21
36.226600
0
LINE
8
Layer 1
10
22.547600
20
36.226600
11
23.074100
21
36.647200
0
LINE
8
Layer 1
10
23.074100
20
36.647200
11
23.755800
21
37.185600
0
LINE
8
Layer 1
10
23.755800
20
37.185600
11
24.533200
21
37.732900
0
LINE
8
Layer 1
10
24.533200
20
37.732900
11
25.416600
21
37.920500
0
LINE
8
Layer 1
10
25.416600
20
37.920500
11
25.416600
21
37.920500
0
LINE
8
Layer 1
10
26.034200
20
37.539800
11
25.797700
21
37.481400
0
LINE
8
Layer 1
10
25.797700
20
37.481400
11
25.768100
21
37.356100
0
LINE
8
Layer 1
10
25.768100
20
37.356100
11
26.008500
21
37.209100
0
LINE
8
Layer 1
10
26.008500
20
37.209100
11
26.267600
21
37.116800
0
LINE
8
Layer 1
10
26.267600
20
37.116800
11
26.477400
21
37.238700
0
LINE
8
Layer 1
10
26.477400
20
37.238700
11
26.034200
21
37.539800
0
LINE
8
Layer 1
10
26.034200
20
37.539800
11
26.034200
21
37.539800
0
LINE
8
Layer 1
10
24.760400
20
37.520600
11
24.348500
21
37.316000
0
LINE
8
Layer 1
10
24.348500
20
37.316000
11
24.423000
21
37.130000
0
LINE
8
Layer 1
10
24.423000
20
37.130000
11
24.751300
21
37.172100
0
LINE
8
Layer 1
10
24.751300
20
37.172100
11
24.948800
21
37.251400
0
LINE
8
Layer 1
10
24.948800
20
37.251400
11
25.058400
21
37.409700
0
LINE
8
Layer 1
10
25.058400
20
37.409700
11
24.760400
21
37.520600
0
LINE
8
Layer 1
10
24.760400
20
37.520600
11
24.760400
21
37.520600
0
LINE
8
Layer 1
10
28.509500
20
36.388400
11
28.225900
21
36.159800
0
LINE
8
Layer 1
10
28.225900
20
36.159800
11
26.503600
21
35.075700
0
LINE
8
Layer 1
10
26.503600
20
35.075700
11
25.405800
21
34.788200
0
LINE
8
Layer 1
10
25.405800
20
34.788200
11
24.479100
21
34.898200
0
LINE
8
Layer 1
10
24.479100
20
34.898200
11
23.181300
21
35.739800
0
LINE
8
Layer 1
10
23.181300
20
35.739800
11
22.757700
21
36.086100
0
LINE
8
Layer 1
10
22.757700
20
36.086100
11
22.660600
21
35.923800
0
LINE
8
Layer 1
10
22.660600
20
35.923800
11
22.989300
21
35.461300
0
LINE
8
Layer 1
10
22.989300
20
35.461300
11
24.685300
21
34.528000
0
LINE
8
Layer 1
10
24.685300
20
34.528000
11
26.255300
21
34.651800
0
LINE
8
Layer 1
10
26.255300
20
34.651800
11
27.749700
21
35.373200
0
LINE
8
Layer 1
10
27.749700
20
35.373200
11
28.707600
21
36.213700
0
LINE
8
Layer 1
10
28.707600
20
36.213700
11
28.509500
21
36.388400
0
LINE
8
Layer 1
10
28.509500
20
36.388400
11
28.509500
21
36.388400
0
LINE
8
Layer 1
10
29.133500
20
34.095300
11
29.246700
21
33.821000
0
LINE
8
Layer 1
10
29.246700
20
33.821000
11
31.082800
21
29.733800
0
LINE
8
Layer 1
10
31.082800
20
29.733800
11
32.778100
21
25.999800
0
LINE
8
Layer 1
10
32.778100
20
25.999800
11
33.080400
21
25.179300
0
LINE
8
Layer 1
10
33.080400
20
25.179300
11
33.129200
21
25.025800
0
LINE
8
Layer 1
10
33.129200
20
25.025800
11
32.762600
21
24.643700
0
LINE
8
Layer 1
10
32.762600
20
24.643700
11
30.904700
21
22.036800
0
LINE
8
Layer 1
10
30.904700
20
22.036800
11
30.636600
21
20.243900
0
LINE
8
Layer 1
10
30.636600
20
20.243900
11
30.146700
21
17.710300
0
LINE
8
Layer 1
10
30.146700
20
17.710300
11
28.879500
21
17.017800
0
LINE
8
Layer 1
10
28.879500
20
17.017800
11
27.144600
21
16.575800
0
LINE
8
Layer 1
10
27.144600
20
16.575800
11
25.470100
21
16.576900
0
LINE
8
Layer 1
10
25.470100
20
16.576900
11
24.517200
21
16.870500
0
LINE
8
Layer 1
10
24.517200
20
16.870500
11
23.403600
21
17.563000
0
LINE
8
Layer 1
10
23.403600
20
17.563000
11
23.324600
21
17.650800
0
LINE
8
Layer 1
10
23.324600
20
17.650800
11
23.531000
21
17.850300
0
LINE
8
Layer 1
10
23.531000
20
17.850300
11
23.980700
21
18.933500
0
LINE
8
Layer 1
10
23.980700
20
18.933500
11
22.530100
21
21.291700
0
LINE
8
Layer 1
10
22.530100
20
21.291700
11
20.702700
21
22.667600
0
LINE
8
Layer 1
10
20.702700
20
22.667600
11
19.908800
21
23.228600
0
LINE
8
Layer 1
10
19.908800
20
23.228600
11
19.982800
21
23.330200
0
LINE
8
Layer 1
10
19.982800
20
23.330200
11
20.350700
21
24.658100
0
LINE
8
Layer 1
10
20.350700
20
24.658100
11
21.828700
21
29.067500
0
LINE
8
Layer 1
10
21.828700
20
29.067500
11
23.260500
21
33.034700
0
LINE
8
Layer 1
10
23.260500
20
33.034700
11
23.373500
21
33.500400
0
LINE
8
Layer 1
10
23.373500
20
33.500400
11
23.631900
21
33.338400
0
LINE
8
Layer 1
10
23.631900
20
33.338400
11
25.706900
21
32.724000
0
LINE
8
Layer 1
10
25.706900
20
32.724000
11
28.109700
21
33.631600
0
LINE
8
Layer 1
10
28.109700
20
33.631600
11
29.133500
21
34.095300
0
LINE
8
Layer 1
10
29.133500
20
34.095300
11
29.133500
21
34.095300
0
LINE
8
Layer 1
10
32.569000
20
30.826600
11
33.027900
21
30.501500
0
LINE
8
Layer 1
10
33.027900
20
30.501500
11
34.031700
21
29.313100
0
LINE
8
Layer 1
10
34.031700
20
29.313100
11
34.116100
21
29.096000
0
LINE
8
Layer 1
10
34.116100
20
29.096000
11
34.032900
21
29.043800
0
LINE
8
Layer 1
10
34.032900
20
29.043800
11
33.969700
21
28.991900
0
LINE
8
Layer 1
10
33.969700
20
28.991900
11
33.870300
21
29.137500
0
LINE
8
Layer 1
10
33.870300
20
29.137500
11
33.286100
21
29.955700
0
LINE
8
Layer 1
10
33.286100
20
29.955700
11
32.916100
21
30.346600
0
LINE
8
Layer 1
10
32.916100
20
30.346600
11
32.593000
21
30.694200
0
LINE
8
Layer 1
10
32.593000
20
30.694200
11
32.569000
21
30.826600
0
LINE
8
Layer 1
10
32.569000
20
30.826600
11
32.569000
21
30.826600
0
LINE
8
Layer 1
10
20.175000
20
30.125000
11
19.704000
21
29.019000
0
LINE
8
Layer 1
10
19.704000
20
29.019000
11
19.227400
21
28.019900
0
LINE
8
Layer 1
10
19.227400
20
28.019900
11
19.152600
21
27.861000
0
LINE
8
Layer 1
10
19.152600
20
27.861000
11
18.962800
21
27.974200
0
LINE
8
Layer 1
10
18.962800
20
27.974200
11
19.621800
21
29.269000
0
LINE
8
Layer 1
10
19.621800
20
29.269000
11
20.175000
21
30.125000
0
LINE
8
Layer 1
10
20.175000
20
30.125000
11
20.175000
21
30.125000
0
LINE
8
Layer 1
10
34.890300
20
25.045600
11
34.892800
21
24.931300
0
LINE
8
Layer 1
10
34.892800
20
24.931300
11
34.756200
21
24.836200
0
LINE
8
Layer 1
10
34.756200
20
24.836200
11
34.800800
21
24.949100
0
LINE
8
Layer 1
10
34.800800
20
24.949100
11
34.890300
21
25.045600
0
LINE
8
Layer 1
10
17.151100
20
22.325000
11
17.489200
21
22.319000
0
LINE
8
Layer 1
10
17.489200
20
22.319000
11
18.003900
21
22.233500
0
LINE
8
Layer 1
10
18.003900
20
22.233500
11
18.801700
21
21.467800
0
LINE
8
Layer 1
10
18.801700
20
21.467800
11
19.495300
21
20.406700
0
LINE
8
Layer 1
10
19.495300
20
20.406700
11
21.504900
21
17.574600
0
LINE
8
Layer 1
10
21.504900
20
17.574600
11
22.994200
21
15.181100
0
LINE
8
Layer 1
10
22.994200
20
15.181100
11
22.735000
21
14.359500
0
LINE
8
Layer 1
10
22.735000
20
14.359500
11
21.669500
21
13.643000
0
LINE
8
Layer 1
10
21.669500
20
13.643000
11
20.494700
21
13.581200
0
LINE
8
Layer 1
10
20.494700
20
13.581200
11
18.727800
21
14.084900
0
LINE
8
Layer 1
10
18.727800
20
14.084900
11
15.336900
21
14.867500
0
LINE
8
Layer 1
10
15.336900
20
14.867500
11
13.825300
21
15.143800
0
LINE
8
Layer 1
10
13.825300
20
15.143800
11
13.463700
21
15.706800
0
LINE
8
Layer 1
10
13.463700
20
15.706800
11
13.609500
21
16.681900
0
LINE
8
Layer 1
10
13.609500
20
16.681900
11
13.675500
21
17.475300
0
LINE
8
Layer 1
10
13.675500
20
17.475300
11
13.604600
21
18.329800
0
LINE
8
Layer 1
10
13.604600
20
18.329800
11
13.559400
21
19.470600
0
LINE
8
Layer 1
10
13.559400
20
19.470600
11
14.513300
21
20.168200
0
LINE
8
Layer 1
10
14.513300
20
20.168200
11
16.517100
21
21.697300
0
LINE
8
Layer 1
10
16.517100
20
21.697300
11
17.033500
21
22.236600
0
LINE
8
Layer 1
10
17.033500
20
22.236600
11
17.151100
21
22.325000
0
LINE
8
Layer 1
10
32.670600
20
22.310800
11
32.720500
21
22.190900
0
LINE
8
Layer 1
10
32.720500
20
22.190900
11
33.470100
21
21.124900
0
LINE
8
Layer 1
10
33.470100
20
21.124900
11
34.126600
21
20.827200
0
LINE
8
Layer 1
10
34.126600
20
20.827200
11
35.042900
21
20.848700
0
LINE
8
Layer 1
10
35.042900
20
20.848700
11
36.546900
21
21.574500
0
LINE
8
Layer 1
10
36.546900
20
21.574500
11
37.374700
21
21.805700
0
LINE
8
Layer 1
10
37.374700
20
21.805700
11
37.843100
21
21.741600
0
LINE
8
Layer 1
10
37.843100
20
21.741600
11
38.420000
21
20.835700
0
LINE
8
Layer 1
10
38.420000
20
20.835700
11
39.518400
21
18.656100
0
LINE
8
Layer 1
10
39.518400
20
18.656100
11
39.872600
21
17.449000
0
LINE
8
Layer 1
10
39.872600
20
17.449000
11
38.607700
21
16.680200
0
LINE
8
Layer 1
10
38.607700
20
16.680200
11
36.143900
21
15.003300
0
LINE
8
Layer 1
10
36.143900
20
15.003300
11
35.448200
21
14.397100
0
LINE
8
Layer 1
10
35.448200
20
14.397100
11
33.712800
21
13.440000
0
LINE
8
Layer 1
10
33.712800
20
13.440000
11
32.672800
21
13.378500
0
LINE
8
Layer 1
10
32.672800
20
13.378500
11
32.011900
21
13.701900
0
LINE
8
Layer 1
10
32.011900
20
13.701900
11
31.291100
21
14.817600
0
LINE
8
Layer 1
10
31.291100
20
14.817600
11
31.659700
21
17.193000
0
LINE
8
Layer 1
10
31.659700
20
17.193000
11
32.149900
21
20.275700
0
LINE
8
Layer 1
10
32.149900
20
20.275700
11
32.594900
21
22.216600
0
LINE
8
Layer 1
10
32.594900
20
22.216600
11
32.670600
21
22.310800
 0 
ENDSEC
 0 
EOF